<svg xmlns="http://www.w3.org/2000/svg" width="375" viewBox="0 0 375 375" height="375" version="1.0"><defs><clipPath id="a"><path d="M 27 24 L 361 24 L 361 365.796875 L 27 365.796875 Z M 27 24"/></clipPath><clipPath id="b"><path d="M 10 9.546875 L 374.800781 9.546875 L 374.800781 337 L 10 337 Z M 10 9.546875"/></clipPath><clipPath id="c"><path d="M 10.632812 13.554688 L 369 13.554688 L 369 365.796875 L 10.632812 365.796875 Z M 10.632812 13.554688"/></clipPath></defs><g clip-path="url(#a)"><path fill="#CBEDDD" d="M 336.726562 281.609375 L 360.726562 281.609375 L 360.726562 291.226562 L 332.195312 291.226562 C 328.265625 299.050781 323.910156 306.476562 319.121094 313.402344 C 318.722656 313.976562 318.324219 314.546875 317.921875 315.117188 C 317.59375 315.574219 317.265625 316.03125 316.9375 316.484375 C 316.515625 317.066406 316.089844 317.640625 315.660156 318.214844 C 315.363281 318.617188 315.0625 319.019531 314.757812 319.417969 C 314.0625 320.328125 313.359375 321.234375 312.644531 322.125 C 302.636719 334.636719 290.96875 345.054688 277.574219 352.582031 C 277.523438 352.609375 277.472656 352.640625 277.425781 352.667969 C 276.15625 353.378906 274.871094 354.066406 273.570312 354.726562 C 273.566406 354.726562 273.566406 354.730469 273.5625 354.730469 C 259.515625 361.835938 243.648438 365.828125 225.871094 365.828125 C 173.664062 365.828125 118.292969 334.875 79.285156 291.226562 L 31.230469 291.226562 L 31.230469 281.609375 L 71.105469 281.609375 C 44.324219 248.351562 27.085938 208.984375 27.085938 170.6875 C 27.085938 76.359375 95.867188 24.242188 190.105469 24.242188 C 284.335938 24.242188 360.726562 65.113281 360.726562 159.441406 C 360.726562 200.359375 353.078125 244.613281 336.726562 281.609375"/></g><g clip-path="url(#b)"><path fill="#FF66C4" d="M 287.828125 92.222656 L 287.828125 155.417969 L 293.191406 155.417969 L 293.191406 167.386719 L 293.992188 167.363281 L 293.992188 155.417969 L 374.800781 155.417969 L 374.800781 92.222656 Z M 121.769531 56.019531 C 121.769531 56.355469 122.042969 56.632812 122.386719 56.632812 C 122.722656 56.632812 122.996094 56.355469 122.996094 56.019531 C 122.996094 55.679688 122.722656 55.402344 122.386719 55.402344 C 122.042969 55.402344 121.769531 55.679688 121.769531 56.019531 Z M 113.097656 68.855469 L 113.097656 62.84375 C 113.097656 61.890625 113.867188 61.117188 114.816406 61.117188 L 120.089844 61.117188 L 121.117188 59.1875 C 121.183594 59.0625 121.273438 58.949219 121.371094 58.851562 C 120.207031 58.429688 119.367188 57.328125 119.367188 56.019531 C 119.367188 54.351562 120.722656 53 122.386719 53 C 124.046875 53 125.398438 54.351562 125.398438 56.019531 C 125.398438 57.328125 124.558594 58.429688 123.394531 58.847656 C 123.496094 58.949219 123.582031 59.0625 123.648438 59.1875 L 124.675781 61.117188 L 129.949219 61.117188 C 130.898438 61.117188 131.671875 61.890625 131.671875 62.84375 L 131.671875 68.855469 C 131.671875 69.800781 130.898438 70.574219 129.949219 70.574219 L 114.816406 70.574219 C 113.867188 70.574219 113.097656 69.800781 113.097656 68.855469 Z M 145.441406 84.265625 L 65.992188 84.265625 L 65.992188 25.765625 L 63.589844 25.765625 L 63.589844 86.671875 L 145.441406 86.671875 Z M 98.785156 143.535156 L 91.632812 143.535156 L 91.632812 145.9375 L 98.785156 145.9375 Z M 91.632812 142.839844 L 107.644531 142.839844 L 107.644531 140.433594 L 91.632812 140.433594 Z M 91.632812 139.738281 L 102.839844 139.738281 L 102.839844 137.335938 L 91.632812 137.335938 Z M 91.632812 131.472656 L 91.632812 133.875 L 98.785156 133.875 L 98.785156 131.472656 Z M 107.644531 128.371094 L 91.632812 128.371094 L 91.632812 130.777344 L 107.644531 130.777344 Z M 91.632812 125.273438 L 91.632812 127.675781 L 102.839844 127.675781 L 102.839844 125.273438 Z M 39.804688 136.828125 L 10.179688 136.828125 L 10.179688 145.320312 L 39.804688 145.320312 Z M 50.851562 124.484375 L 10.179688 124.484375 L 10.179688 132.980469 L 50.851562 132.980469 Z M 137.917969 281.609375 L 154.058594 281.609375 L 145.933594 264.132812 Z M 274.101562 178.492188 C 269.894531 169.304688 261.203125 162.535156 250.640625 161.183594 C 250.402344 161.152344 250.160156 161.125 249.921875 161.09375 L 249.636719 154.550781 C 249.636719 154.550781 249.886719 152.304688 248.335938 151.503906 C 248.335938 151.503906 241.667969 153.589844 235.3125 154.550781 C 228.960938 155.511719 225.8125 152.570312 225.8125 152.570312 C 225.8125 152.570312 222.984375 152.789062 222.820312 154.175781 C 222.664062 155.566406 224.371094 156.6875 223.808594 157.917969 C 223.648438 158.273438 223.328125 158.996094 222.960938 159.839844 C 212.582031 160.410156 203.148438 162.601562 197.339844 167.660156 L 187 175.691406 L 191.472656 191.316406 L 204.125 235.550781 L 193.03125 235.550781 C 193.652344 237.847656 194.316406 240.023438 194.957031 242 C 197.121094 248.660156 196.445312 255.914062 193.109375 262.070312 L 182.527344 281.609375 L 266.390625 281.609375 C 265.25 262.527344 266.363281 243.375 269.699219 224.554688 C 270.695312 225.507812 271.738281 226.425781 272.84375 227.289062 L 288.175781 245.828125 C 292.964844 251.621094 301.414062 252.730469 307.53125 248.363281 C 314.046875 243.710938 315.496094 234.617188 310.738281 228.167969 Z M 144.488281 208.699219 C 139.253906 212.570312 137.394531 219.558594 140.015625 225.519531 C 142.765625 231.785156 149.574219 235.019531 156.03125 233.449219 L 148.117188 205.886719 Z M 177.316406 291.226562 L 174.003906 297.34375 C 201.960938 297.34375 227.789062 312.292969 241.730469 336.550781 L 241.90625 336.855469 L 268.515625 305.4375 L 267.148438 291.226562 Z M 43.171875 237.390625 L 70.652344 264.132812 L 71.796875 264.132812 L 42.234375 235.359375 C 42.542969 236.035156 42.851562 236.714844 43.171875 237.390625 Z M 69.484375 225.171875 L 66.667969 232.96875 L 68.15625 220.457031 L 59.980469 207.257812 L 54.972656 217.917969 L 57.359375 203.332031 L 36.414062 179.757812 L 36.449219 176.925781 L 35.648438 176.925781 L 35.609375 180.058594 L 56.507812 203.578125 L 53.253906 223.453125 L 60.078125 208.9375 L 67.324219 220.636719 L 65.046875 239.808594 L 69.425781 227.691406 L 79.9375 261.71875 L 80.878906 264.132812 L 81.734375 264.132812 L 80.695312 261.453125 Z M 114.851562 111.214844 L 114.851562 112.132812 L 115.589844 112.542969 L 127.230469 105.761719 L 124.386719 144.277344 L 114.851562 153.761719 L 114.851562 154.574219 L 122.964844 150.234375 L 122.132812 209.535156 L 101.84375 220.914062 L 121.917969 216.78125 L 120.4375 235.882812 L 104.460938 238.785156 L 98.761719 264.132812 L 99.582031 264.132812 L 105.125 239.480469 L 121.1875 236.5625 L 122.800781 215.785156 L 106.738281 219.089844 L 122.929688 210.007812 L 123.78125 148.886719 L 117.519531 152.238281 L 125.164062 144.640625 L 128.140625 104.300781 L 115.578125 111.621094 Z M 90.375 216.117188 L 77.121094 182.960938 L 79.375 176.925781 L 78.519531 176.925781 L 76.265625 182.972656 L 88.253906 212.972656 L 76.410156 201.601562 L 74.597656 218.746094 L 88.648438 247.34375 L 89.371094 264.132812 L 90.171875 264.132812 L 89.445312 247.226562 L 89.441406 247.140625 L 75.417969 218.601562 L 77.035156 203.3125 Z M 80.222656 176.925781 L 90.367188 193.253906 L 85.875 176.925781 L 85.042969 176.925781 L 88.128906 188.132812 L 81.164062 176.925781 Z M 293.191406 274.265625 C 293.457031 274.265625 293.722656 274.265625 293.992188 274.265625 L 293.992188 254.851562 L 293.191406 254.824219 Z M 293.992188 46.257812 C 293.722656 46.117188 293.457031 45.976562 293.191406 45.839844 L 293.191406 92.222656 L 293.992188 92.222656 Z M 285.929688 274.304688 C 286.195312 274.300781 286.464844 274.296875 286.730469 274.296875 L 286.730469 254.609375 L 285.929688 254.582031 Z M 285.929688 167.628906 L 286.730469 167.601562 L 286.730469 72.742188 L 289.898438 72.742188 L 289.898438 9.546875 L 200.550781 9.546875 L 200.550781 72.742188 L 285.929688 72.742188 Z M 176.25 24.632812 C 175.984375 24.648438 175.71875 24.664062 175.449219 24.683594 L 175.449219 163.222656 L 176.25 163.195312 Z M 176.25 236.226562 L 175.449219 236.230469 L 175.449219 273.140625 C 175.71875 273.140625 175.984375 273.140625 176.25 273.140625 Z M 168.191406 163.46875 L 168.992188 163.441406 L 168.992188 25.152344 C 168.722656 25.175781 168.457031 25.199219 168.191406 25.222656 Z M 168.191406 236.257812 L 168.191406 273.121094 C 168.457031 273.121094 168.722656 273.121094 168.992188 273.125 L 168.992188 236.253906 L 168.539062 236.257812 C 168.421875 236.257812 168.308594 236.257812 168.191406 236.257812 Z M 347.96875 250.664062 C 348.046875 250.402344 348.125 250.144531 348.199219 249.882812 L 344.855469 249.4375 L 348.441406 249.058594 C 348.523438 248.78125 348.597656 248.503906 348.675781 248.226562 L 338.105469 249.355469 Z M 350.761719 206.621094 L 348.980469 193.957031 L 334.894531 208.621094 L 334.894531 224.019531 L 330.6875 212.800781 L 325.621094 217.742188 L 328.90625 240.386719 L 321.265625 229.960938 L 315.414062 240.875 L 320.90625 263.347656 L 317.71875 274.699219 C 317.976562 274.773438 318.230469 274.859375 318.476562 274.953125 L 321.734375 263.359375 L 316.265625 240.980469 L 321.371094 231.460938 L 330.160156 243.457031 L 326.472656 218.03125 L 330.367188 214.230469 L 335.695312 228.433594 L 335.695312 208.945312 L 348.417969 195.699219 L 350.542969 210.832031 L 351.339844 210.796875 L 352.328125 192.277344 L 359.691406 185.6875 C 359.722656 185.308594 359.75 184.921875 359.777344 184.539062 L 351.546875 191.898438 Z M 323.714844 279.734375 C 323.851562 280.011719 323.972656 280.292969 324.085938 280.582031 L 337.4375 262.539062 L 343.851562 263.503906 C 343.9375 263.246094 344.03125 262.988281 344.121094 262.730469 L 337.082031 261.675781 Z M 45.578125 226.363281 C 43.910156 224.511719 40.246094 223.058594 36.734375 222.015625 C 36.855469 222.332031 36.964844 222.648438 37.082031 222.964844 C 39.738281 223.78125 42.394531 224.824219 44.0625 226.070312 L 37.976562 225.300781 C 38.089844 225.585938 38.199219 225.871094 38.3125 226.152344 L 46.304688 227.164062 Z M 37.6875 204.609375 L 31.605469 205.503906 C 31.539062 205.242188 31.480469 204.980469 31.414062 204.71875 L 32.71875 204.527344 C 32.285156 204.476562 31.816406 204.429688 31.332031 204.378906 C 31.265625 204.105469 31.199219 203.828125 31.128906 203.550781 C 32.980469 203.730469 34.546875 203.929688 35.523438 204.140625 L 37.6875 204.609375"/></g><path fill="#F9D291" d="M 297.507812 125.761719 L 291.957031 125.761719 L 291.957031 126.5625 L 297.507812 126.5625 Z M 306.367188 122.660156 L 291.957031 122.660156 L 291.957031 123.460938 L 306.367188 123.460938 Z M 301.5625 119.5625 L 291.957031 119.5625 L 291.957031 120.363281 L 301.5625 120.363281 Z M 353.261719 101.621094 L 353.261719 103.089844 L 345.777344 103.089844 L 341.710938 107.160156 C 338.195312 104.675781 333.914062 103.203125 329.320312 103.203125 C 328.96875 103.203125 328.613281 103.214844 328.261719 103.230469 C 328.082031 103.238281 327.902344 103.253906 327.722656 103.265625 C 327.558594 103.277344 327.394531 103.292969 327.230469 103.304688 C 326.992188 103.328125 326.757812 103.359375 326.519531 103.390625 C 326.417969 103.402344 326.316406 103.414062 326.21875 103.429688 C 325.941406 103.46875 325.671875 103.515625 325.398438 103.5625 C 325.355469 103.574219 325.3125 103.578125 325.265625 103.589844 L 329.320312 124.84375 L 350.9375 124.84375 C 350.9375 117.859375 347.5625 111.605469 342.367188 107.640625 L 346.109375 103.894531 L 353.261719 103.894531 L 353.261719 105.363281 L 362.871094 105.363281 L 362.871094 101.621094 Z M 144.640625 85.066406 L 65.191406 85.066406 L 65.191406 26.566406 L 64.390625 26.566406 L 64.390625 85.867188 L 144.640625 85.867188 Z M 114.816406 61.917969 C 114.308594 61.917969 113.894531 62.332031 113.894531 62.84375 L 113.894531 68.855469 C 113.894531 69.363281 114.308594 69.773438 114.816406 69.773438 L 129.949219 69.773438 C 130.457031 69.773438 130.871094 69.363281 130.871094 68.855469 L 130.871094 62.84375 C 130.871094 62.332031 130.457031 61.917969 129.949219 61.917969 L 124.199219 61.917969 L 122.945312 59.566406 C 122.703125 59.117188 122.0625 59.117188 121.824219 59.566406 L 120.566406 61.917969 Z M 120.167969 56.019531 C 120.167969 57.242188 121.160156 58.234375 122.386719 58.234375 C 123.605469 58.234375 124.597656 57.242188 124.597656 56.019531 C 124.597656 54.796875 123.605469 53.800781 122.386719 53.800781 C 121.160156 53.800781 120.167969 54.796875 120.167969 56.019531 Z M 149.648438 92.445312 L 55.742188 92.445312 L 55.742188 19.828125 L 149.648438 19.828125 Z M 122.386719 57.433594 C 123.164062 57.433594 123.796875 56.800781 123.796875 56.019531 C 123.796875 55.238281 123.164062 54.601562 122.386719 54.601562 C 121.601562 54.601562 120.96875 55.238281 120.96875 56.019531 C 120.96875 56.800781 121.601562 57.433594 122.386719 57.433594 Z M 253.1875 22.480469 L 247.636719 22.480469 L 247.636719 23.28125 L 253.1875 23.28125 Z M 262.046875 19.382812 L 247.636719 19.382812 L 247.636719 20.183594 L 262.046875 20.183594 Z M 257.246094 16.285156 L 247.636719 16.285156 L 247.636719 17.085938 L 257.246094 17.085938 Z M 218.597656 22.480469 L 213.046875 22.480469 L 213.046875 23.28125 L 218.597656 23.28125 Z M 227.457031 19.382812 L 213.046875 19.382812 L 213.046875 20.183594 L 227.457031 20.183594 Z M 222.652344 16.285156 L 213.046875 16.285156 L 213.046875 17.085938 L 222.652344 17.085938 Z M 259.164062 29.082031 L 247.636719 29.082031 L 247.636719 65.265625 L 259.164062 65.265625 Z M 213.046875 65.265625 L 224.578125 65.265625 L 224.578125 47.007812 L 213.046875 47.007812 Z M 7.214844 170.007812 L 9.617188 170.007812 L 9.617188 112.140625 L 7.214844 112.140625 Z M 10.179688 170.007812 L 57.894531 170.007812 L 57.894531 161.511719 L 10.179688 161.511719 Z M 30.835938 112.140625 L 10.179688 112.140625 L 10.179688 120.640625 L 30.835938 120.640625 Z M 91.632812 170.058594 L 98.785156 170.058594 L 98.785156 167.65625 L 91.632812 167.65625 Z M 91.632812 166.960938 L 107.644531 166.960938 L 107.644531 164.554688 L 91.632812 164.554688 Z M 91.632812 163.863281 L 102.839844 163.863281 L 102.839844 161.460938 L 91.632812 161.460938 Z M 91.632812 121.8125 L 98.785156 121.8125 L 98.785156 119.410156 L 91.632812 119.410156 Z M 91.632812 118.714844 L 107.644531 118.714844 L 107.644531 116.308594 L 91.632812 116.308594 Z M 102.839844 115.617188 L 102.839844 113.210938 L 91.632812 113.210938 L 91.632812 115.617188 Z M 141.09375 181.4375 L 136.992188 186.074219 L 134.523438 188.957031 C 133.632812 190.054688 133.335938 191.589844 133.917969 192.992188 L 140.015625 225.519531 L 141.492188 226.734375 C 145.257812 229.832031 150.613281 229.472656 153.96875 226.265625 L 146.707031 200.992188 L 150.476562 201.203125 C 151.414062 201.253906 152.339844 201.023438 153.144531 200.539062 L 156.984375 198.214844 C 157.480469 197.917969 157.660156 197.289062 157.40625 196.769531 C 157.179688 196.316406 156.671875 196.074219 156.175781 196.183594 L 152.699219 196.949219 L 156.011719 194.289062 C 156.324219 194.039062 156.496094 193.660156 156.484375 193.261719 L 156.445312 192.054688 C 156.429688 191.5 156.042969 191.015625 155.5 190.878906 L 153.722656 190.421875 L 155.804688 188.75 C 156.480469 188.207031 156.808594 187.339844 156.667969 186.480469 C 156.441406 185.171875 155.195312 184.292969 153.890625 184.527344 L 142.5625 186.546875 Z M 300.882812 223.621094 L 265.941406 201.195312 L 255.910156 188.175781 C 254.925781 186.898438 253.433594 186.113281 251.828125 186.015625 L 244.785156 185.609375 C 244.332031 185.582031 243.878906 185.726562 243.527344 186.015625 L 241.234375 187.859375 L 233.589844 189.230469 C 233.007812 189.332031 232.566406 189.804688 232.496094 190.390625 C 232.347656 191.640625 233.34375 192.726562 234.601562 192.691406 L 236.113281 192.648438 L 231.421875 198.773438 C 230.789062 199.605469 230.992188 200.796875 231.867188 201.367188 C 232.332031 201.671875 232.917969 201.738281 233.445312 201.550781 L 241.792969 193.617188 C 242.425781 193.015625 243.328125 192.789062 244.175781 193.023438 L 245.226562 193.3125 L 238.140625 199.871094 L 237.972656 200.113281 C 236.785156 201.792969 237.269531 204.125 239.019531 205.199219 L 239.5 205.492188 C 240.574219 206.152344 241.875 206.324219 243.078125 205.964844 L 248.269531 204.414062 C 248.878906 204.230469 249.53125 204.265625 250.117188 204.515625 L 258.730469 208.191406 L 284.46875 241.550781 C 289.242188 247.734375 298.488281 247.976562 303.578125 242.046875 C 308.457031 236.363281 307.1875 227.667969 300.882812 223.621094 Z M 235.3125 154.550781 C 241.667969 153.589844 248.335938 151.503906 248.335938 151.503906 C 248.378906 151.523438 248.410156 151.550781 248.445312 151.574219 L 247.707031 139.355469 C 252.796875 134.257812 260.535156 123.664062 254.554688 111.707031 C 249.839844 102.277344 245.589844 99.765625 239.371094 98.109375 C 231.160156 95.929688 222.289062 97.550781 215.65625 102.859375 C 213.046875 104.949219 211.042969 107.441406 210.796875 110.246094 C 210.566406 112.925781 209.339844 117.707031 210.441406 123.0625 C 211.230469 126.902344 211.410156 134.152344 212.574219 137.984375 C 215.078125 146.210938 220.851562 149.984375 223.210938 149.84375 C 223.734375 149.8125 224.265625 149.757812 224.796875 149.695312 C 224.761719 149.796875 224.722656 149.890625 224.6875 149.992188 C 224.6875 149.992188 225.535156 150.816406 225.992188 152.722656 C 226.734375 153.304688 229.824219 155.378906 235.3125 154.550781 Z M 199.574219 363.320312 C 168.421875 357.523438 137.308594 341.984375 110.246094 320.464844 L 115.355469 318.332031 L 134.800781 312.4375 C 210.042969 314.265625 209.539062 338.847656 199.574219 363.320312"/><path fill="#868ACD" d="M 329.320312 124.84375 L 325.265625 103.589844 C 321.464844 104.3125 318.019531 106.035156 315.207031 108.464844 L 311.753906 105.007812 L 306.136719 105.007812 L 306.136719 101.796875 L 292.203125 101.796875 L 292.203125 109.058594 L 306.136719 109.058594 L 306.136719 105.808594 L 311.421875 105.808594 L 314.617188 109.007812 C 310.375 112.960938 307.703125 118.582031 307.703125 124.84375 C 307.703125 136.792969 317.382812 146.484375 329.320312 146.484375 C 341.261719 146.484375 350.9375 136.792969 350.9375 124.84375 Z M 329.320312 103.203125 C 341.179688 103.203125 350.9375 112.972656 350.9375 124.84375 C 350.9375 112.890625 341.261719 103.203125 329.320312 103.203125 Z M 71.101562 58.105469 L 76.851562 58.105469 L 78.105469 60.464844 C 78.34375 60.910156 78.988281 60.910156 79.226562 60.464844 L 80.480469 58.105469 L 86.234375 58.105469 C 86.742188 58.105469 87.15625 57.691406 87.15625 57.183594 L 87.15625 51.175781 C 87.15625 50.664062 86.742188 50.25 86.234375 50.25 L 71.101562 50.25 C 70.589844 50.25 70.179688 50.664062 70.179688 51.175781 L 70.179688 57.183594 C 70.179688 57.691406 70.589844 58.105469 71.101562 58.105469 Z M 140.800781 39.496094 C 140.800781 39.695312 140.839844 39.882812 140.914062 40.050781 C 141.019531 40.304688 141.199219 40.519531 141.421875 40.671875 C 141.648438 40.820312 141.917969 40.910156 142.214844 40.910156 C 142.992188 40.910156 143.628906 40.277344 143.628906 39.496094 C 143.628906 38.714844 142.992188 38.078125 142.214844 38.078125 C 141.433594 38.078125 140.800781 38.714844 140.800781 39.496094 Z M 123.71875 54.261719 L 140.289062 40.566406 C 140.109375 40.25 140 39.886719 140 39.496094 C 140 38.273438 140.992188 37.277344 142.214844 37.277344 C 143.433594 37.277344 144.429688 38.273438 144.429688 39.496094 C 144.429688 40.71875 143.433594 41.714844 142.214844 41.714844 C 141.671875 41.714844 141.183594 41.511719 140.796875 41.1875 L 124.261719 54.851562 C 124.117188 54.625 123.9375 54.425781 123.71875 54.261719 Z M 120.65625 54.648438 L 115.140625 51.460938 C 115.035156 51.710938 114.882812 51.933594 114.699219 52.128906 L 120.28125 55.355469 C 120.363281 55.097656 120.488281 54.855469 120.65625 54.648438 Z M 77.445312 65.207031 C 77.585938 65.445312 77.785156 65.636719 78.027344 65.757812 C 78.222656 65.859375 78.433594 65.917969 78.667969 65.917969 C 79.3125 65.917969 79.859375 65.476562 80.023438 64.878906 C 80.058594 64.757812 80.082031 64.632812 80.082031 64.503906 C 80.082031 64.355469 80.050781 64.214844 80.007812 64.078125 C 79.832031 63.507812 79.296875 63.085938 78.667969 63.085938 C 77.886719 63.085938 77.253906 63.722656 77.253906 64.503906 C 77.253906 64.757812 77.328125 65 77.445312 65.207031 Z M 77.460938 66.359375 L 65.191406 79.347656 L 65.191406 78.179688 L 76.882812 65.804688 C 76.613281 65.4375 76.453125 64.992188 76.453125 64.503906 C 76.453125 63.28125 77.445312 62.285156 78.667969 62.285156 C 79.738281 62.285156 80.632812 63.050781 80.835938 64.0625 L 95.78125 63.820312 C 95.765625 63.925781 95.746094 64.03125 95.746094 64.144531 C 95.746094 64.308594 95.769531 64.464844 95.804688 64.621094 L 80.847656 64.863281 C 80.671875 65.917969 79.765625 66.71875 78.667969 66.71875 C 78.222656 66.71875 77.808594 66.582031 77.460938 66.359375 Z M 99.863281 63.023438 L 111.785156 52.386719 C 111.570312 52.226562 111.382812 52.03125 111.234375 51.804688 L 99.335938 62.421875 C 99.546875 62.585938 99.726562 62.789062 99.863281 63.023438 Z M 235.890625 22.480469 L 230.339844 22.480469 L 230.339844 23.28125 L 235.890625 23.28125 Z M 239.308594 19.382812 L 230.339844 19.382812 L 230.339844 20.183594 L 239.308594 20.183594 Z M 241.230469 16.285156 L 230.339844 16.285156 L 230.339844 17.085938 L 241.230469 17.085938 Z M 270.679688 22.480469 L 265.128906 22.480469 L 265.128906 23.28125 L 270.679688 23.28125 Z M 265.128906 20.183594 L 279.542969 20.183594 L 279.542969 19.382812 L 265.128906 19.382812 Z M 274.738281 16.285156 L 265.128906 16.285156 L 265.128906 17.085938 L 274.738281 17.085938 Z M 276.460938 32.941406 L 264.929688 32.941406 L 264.929688 65.265625 L 276.460938 65.265625 Z M 230.339844 65.265625 L 241.871094 65.265625 L 241.871094 38.042969 L 230.339844 38.042969 Z M 106.84375 117.109375 L 92.429688 117.109375 L 92.429688 117.910156 L 106.84375 117.910156 Z M 106.84375 129.171875 L 92.429688 129.171875 L 92.429688 129.972656 L 106.84375 129.972656 Z M 106.84375 141.234375 L 92.429688 141.234375 L 92.429688 142.039062 L 106.84375 142.039062 Z M 106.84375 165.359375 L 92.429688 165.359375 L 92.429688 166.160156 L 106.84375 166.160156 Z M 97.984375 168.457031 L 92.429688 168.457031 L 92.429688 169.257812 L 97.984375 169.257812 Z M 57.09375 162.316406 L 10.980469 162.316406 L 10.980469 169.207031 L 57.09375 169.207031 Z M 8.816406 112.945312 L 8.015625 112.945312 L 8.015625 169.207031 L 8.816406 169.207031 Z M 10.980469 144.519531 L 39.003906 144.519531 L 39.003906 137.628906 L 10.980469 137.628906 Z M 10.980469 132.179688 L 50.050781 132.179688 L 50.050781 125.285156 L 10.980469 125.285156 Z M 10.980469 119.835938 L 30.035156 119.835938 L 30.035156 112.945312 L 10.980469 112.945312 Z M 92.429688 163.0625 L 102.039062 163.0625 L 102.039062 162.261719 L 92.429688 162.261719 Z M 92.429688 145.136719 L 97.984375 145.136719 L 97.984375 144.335938 L 92.429688 144.335938 Z M 92.429688 138.9375 L 102.039062 138.9375 L 102.039062 138.136719 L 92.429688 138.136719 Z M 92.429688 133.074219 L 97.984375 133.074219 L 97.984375 132.273438 L 92.429688 132.273438 Z M 92.429688 126.875 L 102.039062 126.875 L 102.039062 126.074219 L 92.429688 126.074219 Z M 92.429688 121.011719 L 97.984375 121.011719 L 97.984375 120.210938 L 92.429688 120.210938 Z M 92.429688 114.816406 L 102.039062 114.816406 L 102.039062 114.015625 L 92.429688 114.015625 Z M 114.851562 176.925781 L 0.222656 176.925781 L 0.222656 105.117188 L 114.851562 105.117188 Z M 113.203125 267.496094 C 109.933594 267.496094 107.25 269.949219 106.492188 273.234375 C 105.769531 276.351562 107.128906 278.804688 110.414062 278.804688 C 113.644531 278.804688 116.351562 276.625 117.179688 273.035156 C 117.878906 270.015625 116.601562 267.496094 113.203125 267.496094 Z M 104.050781 267.675781 L 97.21875 267.675781 L 94.691406 278.625 L 101.75 278.625 L 102.222656 276.59375 L 97.671875 276.59375 L 98.269531 273.996094 L 102.347656 273.996094 L 102.808594 271.980469 L 98.738281 271.980469 L 99.261719 269.703125 L 103.582031 269.703125 Z M 93.339844 267.984375 C 92.949219 267.757812 92.023438 267.496094 90.722656 267.496094 C 87.375 267.496094 84.203125 269.574219 83.339844 273.3125 C 82.617188 276.433594 84.046875 278.785156 87.871094 278.785156 C 89.21875 278.785156 90.3125 278.546875 90.824219 278.316406 L 90.890625 276.382812 C 90.355469 276.578125 89.480469 276.742188 88.722656 276.742188 C 86.488281 276.742188 85.496094 275.359375 86 273.167969 C 86.5625 270.726562 88.382812 269.542969 90.367188 269.542969 C 91.253906 269.542969 91.914062 269.738281 92.375 269.949219 Z M 137.917969 281.609375 L 61.339844 281.609375 L 66.832031 264.132812 L 145.933594 264.132812 Z M 112.683594 269.464844 C 110.992188 269.464844 109.640625 271.054688 109.148438 273.183594 C 108.65625 275.328125 109.324219 276.839844 110.996094 276.839844 C 112.6875 276.839844 114.023438 275.246094 114.515625 273.117188 C 114.96875 271.152344 114.410156 269.464844 112.683594 269.464844 Z M 271.449219 200.503906 C 269.4375 200.503906 268.660156 203.003906 269.707031 206.089844 C 270.757812 209.179688 273.242188 211.679688 275.253906 211.679688 C 277.265625 211.679688 278.046875 209.179688 276.996094 206.089844 C 275.945312 203.003906 273.460938 200.503906 271.449219 200.503906 Z M 269.875 297.34375 L 271.105469 316.5 C 268.789062 326.21875 264.945312 337.472656 258.730469 344.730469 C 248.617188 356.539062 217.664062 362.257812 204.703125 364.183594 C 202.78125 363.890625 200.859375 363.574219 198.941406 363.207031 C 199.066406 342.183594 183.070312 324.390625 161.957031 322.503906 L 114.867188 318.285156 C 114.867188 318.285156 145.761719 306.316406 174.003906 297.34375 L 269.875 297.34375"/><g clip-path="url(#c)"><path fill="#30526A" d="M 354.78125 133.761719 L 354.78125 136.992188 L 351.09375 136.992188 L 348.558594 134.644531 C 350.074219 131.691406 350.9375 128.363281 350.9375 124.84375 C 350.9375 124.75 350.9375 124.65625 350.9375 124.5625 L 329.320312 124.84375 L 319.910156 144.324219 C 322.84375 145.742188 326.0625 146.484375 329.320312 146.484375 C 337.371094 146.484375 344.449219 141.976562 348.167969 135.371094 L 350.78125 137.792969 L 354.78125 137.792969 L 354.78125 141.023438 L 368.714844 141.023438 L 368.714844 133.761719 Z M 297.507812 149.882812 L 291.957031 149.882812 L 291.957031 150.683594 L 297.507812 150.683594 Z M 306.367188 146.785156 L 291.957031 146.785156 L 291.957031 147.585938 L 306.367188 147.585938 Z M 301.5625 143.6875 L 291.957031 143.6875 L 291.957031 144.488281 L 301.5625 144.488281 Z M 297.507812 137.824219 L 291.957031 137.824219 L 291.957031 138.625 L 297.507812 138.625 Z M 306.367188 134.722656 L 291.957031 134.722656 L 291.957031 135.523438 L 306.367188 135.523438 Z M 301.5625 131.625 L 291.957031 131.625 L 291.957031 132.425781 L 301.5625 132.425781 Z M 106.449219 77.828125 L 106.449219 71.820312 C 106.449219 71.308594 106.035156 70.898438 105.53125 70.898438 L 99.777344 70.898438 L 98.523438 68.539062 C 98.285156 68.09375 97.640625 68.09375 97.40625 68.539062 L 96.148438 70.898438 L 90.394531 70.898438 C 89.890625 70.898438 89.476562 71.308594 89.476562 71.820312 L 89.476562 77.828125 C 89.476562 78.339844 89.890625 78.75 90.394531 78.75 L 105.53125 78.75 C 106.035156 78.75 106.449219 78.339844 106.449219 77.828125 Z M 105.53125 43.90625 L 111.28125 43.90625 L 112.535156 46.257812 C 112.773438 46.707031 113.414062 46.707031 113.65625 46.257812 L 114.910156 43.90625 L 120.660156 43.90625 C 121.171875 43.90625 121.585938 43.492188 121.585938 42.980469 L 121.585938 36.96875 C 121.585938 36.464844 121.171875 36.050781 120.660156 36.050781 L 105.53125 36.050781 C 105.019531 36.050781 104.605469 36.464844 104.605469 36.96875 L 104.605469 42.980469 C 104.605469 43.492188 105.019531 43.90625 105.53125 43.90625 Z M 114.507812 50.609375 C 114.507812 49.828125 113.875 49.191406 113.097656 49.191406 C 112.3125 49.191406 111.683594 49.828125 111.683594 50.609375 C 111.683594 50.847656 111.746094 51.0625 111.84375 51.257812 C 111.972656 51.5 112.164062 51.699219 112.402344 51.835938 C 112.609375 51.953125 112.84375 52.027344 113.097656 52.027344 C 113.429688 52.027344 113.730469 51.902344 113.972656 51.710938 C 114.1875 51.539062 114.347656 51.316406 114.433594 51.050781 C 114.476562 50.910156 114.507812 50.765625 114.507812 50.609375 Z M 115.308594 50.609375 C 115.308594 50.910156 115.25 51.195312 115.140625 51.460938 C 115.035156 51.710938 114.882812 51.933594 114.699219 52.128906 C 114.296875 52.558594 113.726562 52.828125 113.097656 52.828125 C 112.605469 52.828125 112.15625 52.660156 111.785156 52.386719 C 111.570312 52.226562 111.382812 52.03125 111.234375 51.804688 C 111.011719 51.460938 110.882812 51.050781 110.882812 50.609375 C 110.882812 49.386719 111.871094 48.390625 113.097656 48.390625 C 114.316406 48.390625 115.308594 49.386719 115.308594 50.609375 Z M 96.546875 64.144531 C 96.546875 64.304688 96.582031 64.460938 96.632812 64.605469 C 96.824219 65.160156 97.34375 65.558594 97.964844 65.558594 C 98.742188 65.558594 99.378906 64.925781 99.378906 64.144531 C 99.378906 63.9375 99.332031 63.746094 99.253906 63.570312 C 99.140625 63.320312 98.957031 63.105469 98.734375 62.957031 C 98.511719 62.816406 98.246094 62.726562 97.964844 62.726562 C 97.300781 62.726562 96.746094 63.1875 96.59375 63.804688 C 96.566406 63.914062 96.546875 64.027344 96.546875 64.144531 Z M 95.804688 64.621094 C 95.769531 64.464844 95.746094 64.308594 95.746094 64.144531 C 95.746094 64.03125 95.765625 63.925781 95.78125 63.820312 C 95.941406 62.75 96.855469 61.925781 97.964844 61.925781 C 98.484375 61.925781 98.957031 62.117188 99.335938 62.421875 C 99.546875 62.585938 99.726562 62.789062 99.863281 63.023438 C 100.058594 63.351562 100.179688 63.734375 100.179688 64.144531 C 100.179688 65.367188 99.183594 66.363281 97.964844 66.363281 C 96.902344 66.363281 96.019531 65.613281 95.804688 64.621094 Z M 206.472656 65.667969 L 218.414062 65.667969 L 218.414062 66.90625 L 219.210938 66.90625 L 219.210938 65.667969 L 227.058594 65.667969 L 227.058594 66.90625 L 227.859375 66.90625 L 227.859375 65.667969 L 235.703125 65.667969 L 235.703125 66.90625 L 236.503906 66.90625 L 236.503906 65.667969 L 244.351562 65.667969 L 244.351562 66.90625 L 245.152344 66.90625 L 245.152344 65.667969 L 253 65.667969 L 253 66.90625 L 253.800781 66.90625 L 253.800781 65.667969 L 261.648438 65.667969 L 261.648438 66.90625 L 262.449219 66.90625 L 262.449219 65.667969 L 270.292969 65.667969 L 270.292969 66.90625 L 271.09375 66.90625 L 271.09375 65.667969 L 283.71875 65.667969 L 283.71875 64.863281 L 271.09375 64.863281 L 271.09375 63.628906 L 270.292969 63.628906 L 270.292969 64.863281 L 262.449219 64.863281 L 262.449219 63.628906 L 261.648438 63.628906 L 261.648438 64.863281 L 253.800781 64.863281 L 253.800781 63.628906 L 253 63.628906 L 253 64.863281 L 245.152344 64.863281 L 245.152344 63.628906 L 244.351562 63.628906 L 244.351562 64.863281 L 236.503906 64.863281 L 236.503906 63.628906 L 235.703125 63.628906 L 235.703125 64.863281 L 227.859375 64.863281 L 227.859375 63.628906 L 227.058594 63.628906 L 227.058594 64.863281 L 219.210938 64.863281 L 219.210938 63.628906 L 218.414062 63.628906 L 218.414062 64.863281 L 207.273438 64.863281 L 207.273438 60.164062 L 208.511719 60.164062 L 208.511719 59.363281 L 207.273438 59.363281 L 207.273438 53.039062 L 208.511719 53.039062 L 208.511719 52.238281 L 207.273438 52.238281 L 207.273438 45.917969 L 208.511719 45.917969 L 208.511719 45.117188 L 207.273438 45.117188 L 207.273438 38.792969 L 208.511719 38.792969 L 208.511719 37.992188 L 207.273438 37.992188 L 207.273438 31.667969 L 208.511719 31.667969 L 208.511719 30.867188 L 207.273438 30.867188 L 207.273438 24.542969 L 208.511719 24.542969 L 208.511719 23.742188 L 207.273438 23.742188 L 207.273438 17.417969 L 208.511719 17.417969 L 208.511719 16.617188 L 207.273438 16.617188 L 207.273438 13.917969 L 206.472656 13.917969 L 206.472656 16.617188 L 205.234375 16.617188 L 205.234375 17.417969 L 206.472656 17.417969 L 206.472656 23.742188 L 205.234375 23.742188 L 205.234375 24.542969 L 206.472656 24.542969 L 206.472656 30.867188 L 205.234375 30.867188 L 205.234375 31.667969 L 206.472656 31.667969 L 206.472656 37.992188 L 205.234375 37.992188 L 205.234375 38.792969 L 206.472656 38.792969 L 206.472656 45.117188 L 205.234375 45.117188 L 205.234375 45.917969 L 206.472656 45.917969 L 206.472656 52.238281 L 205.234375 52.238281 L 205.234375 53.039062 L 206.472656 53.039062 L 206.472656 59.363281 L 205.234375 59.363281 L 205.234375 60.164062 L 206.472656 60.164062 Z M 10.980469 156.863281 L 77.273438 156.863281 L 77.273438 149.96875 L 10.980469 149.96875 Z M 97.984375 156.398438 L 92.429688 156.398438 L 92.429688 157.199219 L 97.984375 157.199219 Z M 92.429688 154.101562 L 106.84375 154.101562 L 106.84375 153.296875 L 92.429688 153.296875 Z M 92.429688 150.199219 L 92.429688 151 L 102.039062 151 L 102.039062 150.199219 Z M 249.824219 163.230469 C 249.921875 163.285156 250.054688 163.246094 250.109375 163.144531 C 250.199219 162.980469 250.234375 162.820312 250.265625 162.660156 C 250.300781 162.496094 250.296875 162.335938 250.296875 162.175781 C 250.28125 162.015625 250.269531 161.855469 250.21875 161.699219 C 250.171875 161.539062 250.121094 161.378906 250.015625 161.222656 C 250.003906 161.199219 249.980469 161.179688 249.957031 161.164062 C 249.871094 161.117188 249.761719 161.148438 249.714844 161.230469 C 249.621094 161.398438 249.574219 161.558594 249.542969 161.71875 C 249.503906 161.882812 249.5 162.042969 249.496094 162.203125 C 249.503906 162.363281 249.511719 162.519531 249.558594 162.679688 C 249.597656 162.839844 249.648438 163 249.746094 163.15625 C 249.761719 163.183594 249.792969 163.210938 249.824219 163.230469 Z M 221.582031 165.285156 C 221.679688 165.316406 221.785156 165.261719 221.816406 165.164062 C 221.925781 164.824219 221.996094 164.492188 222.070312 164.160156 C 222.148438 163.828125 222.203125 163.496094 222.269531 163.164062 C 222.320312 162.832031 222.386719 162.5 222.429688 162.160156 C 222.476562 161.824219 222.527344 161.484375 222.546875 161.128906 C 222.546875 161.074219 222.523438 161.019531 222.476562 160.988281 C 222.402344 160.9375 222.304688 160.960938 222.257812 161.03125 C 222.050781 161.332031 221.902344 161.65625 221.777344 161.988281 C 221.644531 162.320312 221.554688 162.667969 221.484375 163.015625 C 221.417969 163.367188 221.367188 163.71875 221.367188 164.078125 C 221.363281 164.433594 221.378906 164.792969 221.457031 165.148438 C 221.46875 165.210938 221.515625 165.265625 221.582031 165.285156 Z M 225.40625 160.964844 C 225.402344 161.039062 225.441406 161.113281 225.507812 161.148438 C 225.601562 161.191406 225.710938 161.152344 225.753906 161.0625 C 226.007812 160.542969 226.003906 159.925781 225.875 159.382812 C 225.75 158.828125 225.492188 158.328125 225.203125 157.871094 C 224.90625 157.429688 224.59375 157.019531 224.28125 156.625 C 223.980469 156.222656 223.699219 155.820312 223.464844 155.375 C 223.4375 155.316406 223.375 155.285156 223.308594 155.289062 C 223.226562 155.300781 223.164062 155.375 223.171875 155.460938 C 223.234375 156.007812 223.460938 156.523438 223.714844 156.988281 C 223.96875 157.460938 224.265625 157.882812 224.53125 158.304688 C 224.796875 158.71875 225.023438 159.148438 225.195312 159.585938 C 225.363281 160.023438 225.445312 160.480469 225.410156 160.960938 Z M 141.246094 181.199219 C 140.828125 179.511719 140.367188 177.832031 139.925781 176.152344 L 138.503906 171.132812 C 138.011719 169.464844 137.511719 167.800781 136.960938 166.148438 C 136.929688 166.0625 136.839844 166.007812 136.746094 166.027344 C 136.648438 166.050781 136.585938 166.148438 136.609375 166.242188 C 136.976562 167.945312 137.398438 169.632812 137.824219 171.320312 L 139.15625 176.363281 C 139.636719 178.035156 140.097656 179.710938 140.59375 181.378906 C 141.089844 183.042969 141.597656 184.707031 142.152344 186.359375 C 142.15625 186.371094 142.167969 186.378906 142.171875 186.386719 C 141.625 186.464844 141.078125 186.550781 140.53125 186.664062 C 139.960938 186.777344 139.394531 186.898438 138.832031 187.074219 C 138.769531 187.09375 138.726562 187.148438 138.722656 187.214844 C 138.71875 187.300781 138.785156 187.375 138.875 187.378906 C 139.460938 187.398438 140.039062 187.371094 140.621094 187.335938 C 141.199219 187.304688 141.777344 187.238281 142.351562 187.167969 C 142.925781 187.089844 143.5 187.011719 144.070312 186.898438 C 144.636719 186.789062 145.207031 186.667969 145.769531 186.5 C 145.84375 186.476562 145.898438 186.410156 145.902344 186.328125 C 145.90625 186.226562 145.824219 186.144531 145.722656 186.140625 C 145.136719 186.121094 144.554688 186.15625 143.976562 186.191406 C 143.457031 186.226562 142.945312 186.285156 142.433594 186.351562 C 142.4375 186.328125 142.453125 186.304688 142.449219 186.28125 C 142.082031 184.578125 141.667969 182.886719 141.246094 181.199219 Z M 203.929688 235.6875 L 193.039062 235.578125 C 193.039062 235.570312 193.035156 235.5625 193.03125 235.550781 L 188.003906 235.550781 L 188.003906 235.558594 L 180.332031 235.53125 L 168.539062 235.488281 C 164.699219 235.464844 160.859375 235.480469 157.015625 235.5 L 152.332031 219.542969 L 149.9375 211.429688 L 147.492188 203.332031 C 147.46875 203.253906 147.386719 203.207031 147.304688 203.230469 C 147.222656 203.253906 147.175781 203.339844 147.199219 203.417969 L 149.453125 211.570312 L 151.757812 219.707031 L 156.386719 235.972656 C 156.429688 236.128906 156.574219 236.242188 156.742188 236.242188 C 160.671875 236.261719 164.605469 236.28125 168.539062 236.257812 L 180.332031 236.210938 L 188.003906 236.1875 L 188.003906 242.914062 C 188.003906 247.558594 191.085938 251.425781 194.90625 251.550781 L 196.136719 251.59375 C 196.355469 248.382812 195.976562 245.125 194.957031 242 C 194.375 240.203125 193.777344 238.230469 193.199219 236.160156 L 203.929688 236.050781 C 204.023438 236.050781 204.105469 235.972656 204.105469 235.875 C 204.109375 235.773438 204.027344 235.6875 203.929688 235.6875 Z M 204.792969 234.429688 L 199.617188 216.605469 L 194.371094 198.800781 L 193.15625 194.6875 C 193.191406 194.394531 193.222656 194.105469 193.285156 193.816406 C 193.382812 193.414062 193.449219 193.007812 193.570312 192.609375 C 193.777344 191.804688 194.023438 191.015625 194.292969 190.226562 C 194.832031 188.648438 195.410156 187.078125 196.039062 185.527344 C 197.261719 182.414062 198.609375 179.347656 199.898438 176.246094 C 199.929688 176.175781 199.902344 176.09375 199.835938 176.054688 C 199.761719 176.011719 199.667969 176.039062 199.628906 176.113281 C 198.800781 177.582031 198.046875 179.085938 197.324219 180.609375 C 196.601562 182.128906 195.945312 183.679688 195.296875 185.234375 C 194.6875 186.804688 194.101562 188.390625 193.617188 190.011719 C 193.28125 191.171875 192.972656 192.363281 192.832031 193.585938 L 189.121094 180.992188 C 187.386719 175.054688 185.570312 169.140625 183.800781 163.210938 C 183.757812 163.058594 183.613281 162.945312 183.445312 162.949219 L 160.007812 163.746094 C 152.195312 163.996094 144.382812 164.320312 136.570312 164.617188 C 136.488281 164.621094 136.421875 164.691406 136.425781 164.777344 C 136.429688 164.855469 136.496094 164.925781 136.582031 164.921875 C 144.398438 164.738281 152.214844 164.574219 160.027344 164.335938 L 183.1875 163.679688 C 184.917969 169.523438 186.609375 175.382812 188.375 181.214844 L 199.039062 216.777344 L 204.445312 234.535156 C 204.472656 234.628906 204.574219 234.683594 204.667969 234.65625 C 204.765625 234.628906 204.820312 234.527344 204.792969 234.429688 Z M 143.582031 200.96875 C 144.496094 201.082031 145.410156 201.140625 146.324219 201.191406 C 147.238281 201.25 148.152344 201.269531 149.070312 201.292969 L 150.441406 201.300781 C 150.925781 201.296875 151.417969 201.25 151.882812 201.125 C 152.820312 200.898438 153.671875 200.492188 154.472656 200.035156 C 154.542969 199.988281 154.582031 199.898438 154.550781 199.816406 C 154.519531 199.71875 154.417969 199.671875 154.320312 199.703125 C 153.453125 199.984375 152.601562 200.289062 151.742188 200.429688 C 151.308594 200.492188 150.882812 200.535156 150.453125 200.519531 L 149.078125 200.492188 C 148.164062 200.488281 147.25 200.484375 146.332031 200.515625 C 145.417969 200.542969 144.503906 200.578125 143.585938 200.667969 C 143.515625 200.671875 143.457031 200.726562 143.449219 200.800781 C 143.4375 200.886719 143.496094 200.960938 143.582031 200.96875 Z M 147.105469 197.867188 C 148.273438 197.820312 149.425781 197.796875 150.613281 197.644531 C 151.203125 197.558594 151.800781 197.429688 152.371094 197.179688 C 152.925781 196.921875 153.453125 196.519531 153.761719 195.980469 C 153.796875 195.914062 153.78125 195.832031 153.726562 195.78125 C 153.660156 195.730469 153.5625 195.738281 153.507812 195.804688 C 152.792969 196.660156 151.644531 196.894531 150.539062 196.976562 C 149.414062 197.035156 148.242188 197.066406 147.09375 197.066406 C 145.9375 197.101562 144.785156 197.085938 143.625 197.101562 C 142.46875 197.117188 141.308594 197.125 140.144531 197.1875 C 140.054688 197.191406 139.984375 197.261719 139.972656 197.347656 C 139.960938 197.449219 140.035156 197.539062 140.132812 197.550781 C 141.292969 197.679688 142.453125 197.753906 143.613281 197.8125 C 144.777344 197.863281 145.9375 197.871094 147.105469 197.867188 Z M 155.425781 188.445312 C 155.382812 188.375 155.285156 188.351562 155.210938 188.394531 C 154.125 189.058594 153.0625 189.761719 152.007812 190.476562 C 150.957031 191.167969 149.898438 191.96875 148.890625 192.613281 C 147.890625 193.210938 146.636719 193.320312 145.390625 193.382812 C 144.140625 193.445312 142.835938 193.414062 141.558594 193.71875 C 141.472656 193.742188 141.414062 193.824219 141.421875 193.914062 C 141.433594 194.011719 141.519531 194.085938 141.621094 194.074219 C 142.863281 193.96875 144.117188 194.082031 145.40625 194.089844 C 146.679688 194.089844 148.066406 193.996094 149.292969 193.304688 C 149.894531 192.921875 150.34375 192.546875 150.875 192.167969 C 151.382812 191.789062 151.902344 191.417969 152.402344 191.023438 C 153.410156 190.25 154.414062 189.46875 155.394531 188.644531 C 155.449219 188.59375 155.464844 188.511719 155.425781 188.445312 Z M 273.976562 206.511719 C 273.730469 205.890625 273.460938 205.28125 273.167969 204.679688 C 273.007812 204.339844 272.824219 204.015625 272.648438 203.6875 C 272.476562 203.359375 272.277344 203.039062 272.074219 202.722656 C 272.035156 202.667969 271.96875 202.640625 271.902344 202.65625 C 271.820312 202.679688 271.769531 202.761719 271.792969 202.84375 C 271.886719 203.210938 271.980469 203.574219 272.105469 203.925781 C 272.230469 204.277344 272.339844 204.632812 272.484375 204.980469 C 272.753906 205.671875 273.046875 206.355469 273.375 207.023438 L 273.390625 207.054688 C 273.449219 207.179688 273.578125 207.257812 273.722656 207.25 C 274.40625 207.214844 275.089844 207.167969 275.777344 207.050781 C 275.847656 207.039062 275.914062 206.980469 275.925781 206.902344 C 275.941406 206.800781 275.875 206.707031 275.777344 206.691406 C 275.175781 206.589844 274.578125 206.546875 273.976562 206.511719 Z M 152 322.277344 C 151.976562 322.179688 151.875 322.125 151.777344 322.148438 C 149.296875 322.804688 146.820312 323.480469 144.355469 324.191406 L 136.96875 326.355469 L 129.617188 328.621094 C 127.167969 329.386719 124.726562 330.1875 122.292969 331.007812 C 122.21875 331.03125 122.175781 331.109375 122.195312 331.1875 C 122.214844 331.273438 122.300781 331.320312 122.382812 331.296875 C 124.863281 330.648438 127.34375 329.972656 129.808594 329.269531 L 137.195312 327.121094 L 144.558594 324.871094 C 147.007812 324.105469 149.449219 323.3125 151.882812 322.496094 C 151.972656 322.464844 152.023438 322.371094 152 322.277344 Z M 138.523438 280.664062 C 139.183594 279.464844 139.792969 278.238281 140.398438 277.011719 C 141 275.78125 141.570312 274.539062 142.15625 273.300781 C 142.703125 272.050781 143.28125 270.804688 143.816406 269.546875 C 144.351562 268.289062 144.882812 267.023438 145.363281 265.742188 C 145.386719 265.671875 145.359375 265.589844 145.292969 265.554688 C 145.21875 265.511719 145.125 265.539062 145.085938 265.613281 C 144.425781 266.816406 143.808594 268.039062 143.203125 269.261719 C 142.59375 270.492188 142.019531 271.734375 141.429688 272.964844 C 140.867188 274.214844 140.292969 275.457031 139.753906 276.714844 C 139.214844 277.972656 138.679688 279.230469 138.195312 280.515625 C 138.164062 280.597656 138.195312 280.691406 138.277344 280.738281 C 138.363281 280.789062 138.476562 280.757812 138.523438 280.664062 Z M 241.800781 187.246094 C 241.242188 187.640625 240.71875 188.074219 240.199219 188.515625 C 239.675781 188.949219 239.179688 189.410156 238.683594 189.871094 C 238.195312 190.339844 237.707031 190.808594 237.242188 191.304688 C 236.773438 191.800781 236.3125 192.296875 235.890625 192.835938 C 235.839844 192.898438 235.832031 192.988281 235.882812 193.054688 C 235.9375 193.136719 236.054688 193.160156 236.136719 193.097656 C 236.691406 192.699219 237.214844 192.261719 237.730469 191.820312 C 238.246094 191.382812 238.742188 190.917969 239.234375 190.449219 C 239.71875 189.976562 240.207031 189.503906 240.664062 189.003906 C 241.132812 188.507812 241.585938 188.003906 242.011719 187.46875 C 242.054688 187.414062 242.058594 187.339844 242.015625 187.28125 C 241.964844 187.214844 241.871094 187.195312 241.800781 187.246094 Z M 254.644531 202.425781 C 254.714844 202.386719 254.753906 202.308594 254.734375 202.226562 C 254.710938 202.132812 254.613281 202.070312 254.515625 202.089844 C 253.933594 202.210938 253.371094 202.382812 252.804688 202.546875 C 252.242188 202.710938 251.683594 202.898438 251.128906 203.078125 C 250.574219 203.273438 250.015625 203.460938 249.46875 203.675781 C 248.917969 203.882812 248.367188 204.09375 247.828125 204.347656 C 247.769531 204.375 247.734375 204.4375 247.738281 204.503906 C 247.75 204.589844 247.824219 204.652344 247.910156 204.640625 C 248.507812 204.578125 249.085938 204.457031 249.667969 204.324219 C 250.191406 204.203125 250.703125 204.050781 251.21875 203.890625 C 251.222656 203.914062 251.214844 203.9375 251.230469 203.960938 C 251.390625 204.203125 251.613281 204.390625 251.863281 204.546875 C 252.109375 204.703125 252.386719 204.796875 252.671875 204.859375 C 252.957031 204.914062 253.253906 204.933594 253.542969 204.886719 C 253.828125 204.84375 254.109375 204.753906 254.355469 204.59375 C 254.398438 204.5625 254.429688 204.511719 254.4375 204.453125 C 254.449219 204.347656 254.375 204.253906 254.265625 204.242188 L 254.257812 204.242188 C 253.996094 204.214844 253.757812 204.203125 253.519531 204.175781 C 253.285156 204.144531 253.054688 204.121094 252.824219 204.074219 C 252.59375 204.039062 252.367188 203.976562 252.132812 203.925781 C 251.960938 203.878906 251.773438 203.820312 251.589844 203.765625 C 252.082031 203.597656 252.570312 203.421875 253.042969 203.214844 C 253.589844 202.980469 254.128906 202.730469 254.644531 202.425781 Z M 238.785156 204.53125 L 241.984375 202.476562 C 243.058594 201.800781 244.125 201.125 245.21875 200.496094 C 246.296875 199.835938 247.398438 199.214844 248.503906 198.601562 L 251.832031 196.765625 C 251.910156 196.722656 251.945312 196.628906 251.914062 196.539062 C 251.878906 196.445312 251.773438 196.398438 251.675781 196.433594 C 250.484375 196.882812 249.316406 197.40625 248.171875 197.96875 C 247.027344 198.539062 245.914062 199.167969 244.808594 199.808594 C 243.722656 200.480469 242.644531 201.167969 241.609375 201.914062 C 240.570312 202.660156 239.5625 203.441406 238.601562 204.285156 C 238.546875 204.332031 238.53125 204.417969 238.574219 204.480469 C 238.621094 204.554688 238.714844 204.578125 238.785156 204.53125 Z M 305.496094 244.644531 C 304.019531 246.191406 302.101562 247.300781 300.046875 247.925781 C 297.988281 248.554688 295.769531 248.679688 293.632812 248.25 C 293.539062 248.230469 293.449219 248.289062 293.421875 248.375 C 293.394531 248.472656 293.449219 248.574219 293.546875 248.601562 C 295.707031 249.234375 298.054688 249.203125 300.242188 248.609375 C 302.433594 248.015625 304.472656 246.835938 306.074219 245.203125 C 307.648438 243.542969 308.761719 241.464844 309.273438 239.257812 C 309.792969 237.050781 309.746094 234.707031 309.042969 232.570312 C 309.019531 232.496094 308.941406 232.449219 308.863281 232.46875 C 308.78125 232.488281 308.730469 232.570312 308.75 232.652344 C 309.246094 234.78125 309.183594 237.011719 308.617188 239.09375 C 308.054688 241.167969 307.003906 243.121094 305.496094 244.644531 Z M 260.136719 173.519531 C 260.371094 173.246094 260.636719 173.003906 260.882812 172.738281 C 261.152344 172.503906 261.421875 172.257812 261.703125 172.035156 C 262.261719 171.574219 262.878906 171.175781 263.503906 170.828125 L 263.515625 170.820312 C 263.582031 170.785156 263.613281 170.703125 263.585938 170.628906 C 263.554688 170.550781 263.464844 170.515625 263.382812 170.546875 C 261.972656 171.101562 260.710938 171.96875 259.644531 173.054688 C 258.582031 174.144531 257.730469 175.464844 257.226562 176.914062 C 257.066406 177.265625 257.023438 177.65625 256.917969 178.023438 L 256.785156 178.578125 L 256.722656 179.148438 C 256.6875 179.53125 256.628906 179.910156 256.617188 180.289062 C 256.625 180.671875 256.640625 181.050781 256.660156 181.429688 C 256.660156 181.808594 256.722656 182.183594 256.792969 182.550781 L 256.992188 183.667969 C 257.191406 184.390625 257.429688 185.101562 257.667969 185.8125 C 257.695312 185.894531 257.78125 185.945312 257.871094 185.929688 C 257.96875 185.910156 258.03125 185.816406 258.015625 185.71875 L 258.011719 185.695312 C 257.875 184.972656 257.6875 184.265625 257.5625 183.554688 L 257.433594 182.472656 C 257.386719 182.113281 257.347656 181.757812 257.367188 181.394531 C 257.292969 179.953125 257.53125 178.527344 257.980469 177.179688 C 258.40625 175.816406 259.195312 174.597656 260.136719 173.519531 Z M 223.1875 169.121094 C 223.683594 169.546875 224.300781 169.792969 224.910156 169.953125 C 226.140625 170.226562 227.355469 170.3125 228.589844 170.367188 C 231.046875 170.453125 233.507812 170.160156 235.910156 169.683594 C 238.3125 169.171875 240.660156 168.464844 242.953125 167.617188 C 245.242188 166.78125 247.480469 165.816406 249.703125 164.828125 C 249.789062 164.792969 249.832031 164.691406 249.800781 164.601562 C 249.761719 164.507812 249.660156 164.457031 249.566406 164.492188 C 247.28125 165.320312 245.007812 166.175781 242.71875 166.953125 C 240.425781 167.726562 238.109375 168.425781 235.75 168.902344 C 233.398438 169.414062 231 169.691406 228.597656 169.691406 C 227.40625 169.6875 226.179688 169.632812 225.03125 169.429688 C 224.457031 169.316406 223.902344 169.128906 223.449219 168.792969 C 222.996094 168.457031 222.632812 167.976562 222.539062 167.417969 C 222.527344 167.339844 222.457031 167.285156 222.375 167.289062 C 222.289062 167.300781 222.230469 167.375 222.238281 167.457031 C 222.304688 168.121094 222.695312 168.707031 223.1875 169.121094 Z M 221.382812 142.476562 C 221.582031 142.550781 221.785156 142.582031 221.988281 142.609375 C 222.195312 142.625 222.402344 142.632812 222.609375 142.59375 C 222.816406 142.566406 223.019531 142.519531 223.21875 142.414062 C 223.257812 142.394531 223.292969 142.359375 223.308594 142.316406 C 223.355469 142.210938 223.304688 142.097656 223.199219 142.054688 C 223.003906 141.964844 222.8125 141.925781 222.625 141.886719 C 222.433594 141.84375 222.246094 141.832031 222.054688 141.8125 C 221.867188 141.800781 221.675781 141.789062 221.484375 141.804688 C 221.289062 141.816406 221.09375 141.832031 220.878906 141.882812 C 220.84375 141.894531 220.8125 141.914062 220.785156 141.941406 C 220.730469 142.019531 220.742188 142.125 220.816406 142.183594 C 220.992188 142.320312 221.1875 142.40625 221.382812 142.476562 Z M 229.351562 138.726562 C 229.421875 138.679688 229.453125 138.585938 229.417969 138.503906 C 229.378906 138.410156 229.273438 138.367188 229.179688 138.40625 C 228.320312 138.757812 227.449219 139.054688 226.5625 139.273438 C 225.675781 139.484375 224.773438 139.640625 223.867188 139.710938 C 222.960938 139.789062 222.046875 139.78125 221.132812 139.710938 C 220.21875 139.640625 219.3125 139.484375 218.40625 139.277344 C 218.335938 139.261719 218.261719 139.292969 218.230469 139.359375 C 218.195312 139.4375 218.230469 139.53125 218.304688 139.566406 C 219.171875 139.96875 220.105469 140.226562 221.050781 140.382812 C 222 140.546875 222.96875 140.574219 223.929688 140.507812 C 224.890625 140.429688 225.84375 140.253906 226.761719 139.957031 C 227.671875 139.65625 228.554688 139.257812 229.351562 138.726562 Z M 214.574219 121.207031 C 213.925781 121.207031 213.402344 122.023438 213.402344 123.027344 C 213.402344 124.03125 213.925781 124.84375 214.574219 124.84375 C 215.222656 124.84375 215.75 124.03125 215.75 123.027344 C 215.75 122.023438 215.222656 121.207031 214.574219 121.207031 Z M 226.453125 121.207031 C 225.804688 121.207031 225.28125 122.023438 225.28125 123.027344 C 225.28125 124.03125 225.804688 124.84375 226.453125 124.84375 C 227.101562 124.84375 227.625 124.03125 227.625 123.027344 C 227.625 122.023438 227.101562 121.207031 226.453125 121.207031 Z M 266.628906 220.007812 C 266.847656 220.289062 267.246094 220.34375 267.527344 220.125 C 268.703125 219.246094 271.566406 216.773438 273.214844 212.757812 C 273.46875 212.828125 273.722656 212.867188 273.964844 212.867188 C 274.476562 212.867188 274.902344 212.703125 275.246094 212.414062 L 275.246094 212.417969 L 276.4375 211.300781 C 276.113281 211.542969 275.714844 211.679688 275.253906 211.679688 C 273.242188 211.679688 270.757812 209.179688 269.707031 206.089844 C 268.925781 203.789062 269.160156 201.8125 270.167969 200.957031 L 270.167969 200.953125 L 268.875 202.144531 L 268.875 202.148438 C 267.871094 203.003906 267.636719 204.976562 268.417969 207.277344 C 268.582031 207.75 268.78125 208.207031 269 208.644531 C 268.335938 209.953125 266.636719 212.867188 263.730469 215.195312 C 263.453125 215.417969 263.398438 215.816406 263.613281 216.097656 Z M 254 172.910156 C 253.035156 172.351562 251.800781 172.683594 251.238281 173.652344 L 244.316406 185.648438 C 244.472656 185.621094 244.628906 185.601562 244.785156 185.609375 L 248.871094 185.84375 L 254.742188 175.671875 C 255.300781 174.707031 254.96875 173.46875 254 172.910156 Z M 238.109375 199.914062 C 238.167969 199.972656 238.261719 199.972656 238.324219 199.914062 C 239.128906 199.128906 239.925781 198.34375 240.746094 197.585938 C 241.570312 196.835938 242.394531 196.078125 243.265625 195.382812 C 243.691406 195.019531 244.117188 194.664062 244.554688 194.320312 C 244.960938 193.976562 245.410156 193.785156 245.917969 193.609375 C 246.933594 193.289062 248.09375 193.222656 249.183594 192.804688 C 249.265625 192.769531 249.316406 192.683594 249.296875 192.59375 C 249.277344 192.496094 249.183594 192.433594 249.082031 192.453125 C 248.007812 192.671875 246.886719 192.648438 245.726562 192.925781 C 245.308594 193.023438 244.882812 193.195312 244.5 193.429688 L 244.65625 193.15625 L 244.175781 193.023438 C 243.328125 192.789062 242.425781 193.015625 241.792969 193.617188 L 237.210938 197.96875 L 230.488281 209.628906 L 229.675781 214.230469 C 229.628906 214.488281 229.917969 214.667969 230.125 214.511719 L 233.992188 211.652344 L 238.15625 204.429688 C 237.160156 203.226562 237.019531 201.464844 237.972656 200.113281 Z M 210.003906 117.625 L 214.394531 118.082031 C 214.335938 118.054688 214.28125 118.023438 214.222656 118 C 213.371094 117.628906 212.433594 117.453125 211.492188 117.691406 C 211.410156 117.71875 211.324219 117.667969 211.300781 117.585938 C 211.285156 117.523438 211.308594 117.457031 211.359375 117.421875 C 211.804688 117.089844 212.371094 116.949219 212.925781 116.9375 C 213.484375 116.921875 214.035156 117.054688 214.542969 117.265625 C 215.042969 117.484375 215.503906 117.769531 215.90625 118.113281 C 216.085938 118.257812 216.257812 118.414062 216.421875 118.574219 C 217.066406 118.984375 217.488281 119.65625 217.488281 120.410156 L 217.488281 121.632812 C 218.605469 121.195312 219.855469 121.308594 220.890625 121.941406 L 220.890625 121.199219 C 220.890625 120.597656 221.148438 120.03125 221.617188 119.609375 C 222.164062 119.117188 222.914062 118.878906 223.679688 118.960938 L 229.65625 119.585938 C 229.453125 119.457031 229.25 119.316406 229.035156 119.203125 C 227.824219 118.558594 226.371094 118.273438 225.035156 118.777344 C 224.957031 118.808594 224.863281 118.773438 224.832031 118.691406 C 224.808594 118.625 224.832031 118.554688 224.886719 118.511719 C 225.519531 118.046875 226.34375 117.859375 227.136719 117.882812 C 227.929688 117.902344 228.707031 118.132812 229.410156 118.496094 C 230.101562 118.863281 230.71875 119.34375 231.257812 119.882812 C 231.796875 120.417969 232.277344 120.988281 232.714844 121.59375 C 232.777344 121.675781 232.757812 121.789062 232.675781 121.847656 C 232.609375 121.898438 232.515625 121.894531 232.453125 121.839844 C 232.289062 121.707031 232.132812 121.570312 231.976562 121.429688 C 232 121.566406 232.015625 121.699219 232.015625 121.835938 L 232.015625 123.359375 L 235.1875 122.507812 C 234.230469 119.742188 233.5 118.003906 233.5 118.003906 L 231.152344 112.019531 L 231.152344 118.003906 C 231.152344 118.003906 231.152344 118.003906 225.171875 115.011719 C 219.195312 112.019531 217.058594 105.609375 217.058594 105.609375 L 217.058594 115.011719 C 214.351562 114.289062 212.238281 112.722656 210.691406 111.160156 C 210.476562 112.832031 210.078125 115.070312 210.003906 117.625 Z M 231.214844 121.835938 C 231.214844 121.109375 230.574219 120.492188 229.726562 120.402344 L 223.59375 119.757812 C 223.054688 119.707031 222.527344 119.867188 222.152344 120.203125 C 221.855469 120.472656 221.691406 120.828125 221.691406 121.199219 L 221.691406 125.265625 C 221.691406 126 222.332031 126.617188 223.183594 126.707031 L 229.3125 127.347656 C 229.851562 127.402344 230.375 127.242188 230.753906 126.902344 C 231.054688 126.632812 231.214844 126.28125 231.214844 125.90625 Z M 216.21875 125.472656 C 216.519531 125.203125 216.6875 124.847656 216.6875 124.480469 L 216.6875 120.410156 C 216.6875 119.675781 216.042969 119.0625 215.191406 118.96875 L 209.996094 118.429688 C 210 119.894531 210.109375 121.445312 210.441406 123.0625 C 210.585938 123.773438 210.710938 124.601562 210.824219 125.503906 L 214.777344 125.917969 C 215.320312 125.972656 215.84375 125.8125 216.21875 125.472656 Z M 203.429688 151.535156 C 203.429688 151.535156 203.027344 143.050781 203.429688 123.835938 C 203.652344 113.28125 206.21875 104.539062 208.480469 98.800781 C 209.015625 96.96875 209.761719 95.3125 210.683594 93.832031 C 211.476562 92.246094 212.003906 91.390625 212.003906 91.390625 L 212.503906 91.390625 C 221.320312 81.3125 240.03125 81.433594 253.570312 88.9375 C 277.484375 102.191406 266.378906 143.4375 266.378906 143.4375 C 258.050781 149.632812 239.050781 153.265625 239.050781 153.265625 C 239.050781 153.265625 239.851562 150.257812 239.6875 144.679688 C 239.265625 145.09375 238.816406 145.476562 238.347656 145.835938 C 237.277344 146.636719 236.101562 147.273438 234.898438 147.824219 C 233.675781 148.34375 232.425781 148.78125 231.160156 149.125 C 229.890625 149.46875 228.613281 149.753906 227.324219 149.988281 C 227.246094 150.007812 227.164062 149.953125 227.148438 149.871094 C 227.132812 149.792969 227.179688 149.71875 227.25 149.695312 L 230.964844 148.476562 C 232.1875 148.0625 233.410156 147.636719 234.574219 147.09375 C 235.75 146.585938 236.878906 145.96875 237.933594 145.253906 C 238.542969 144.847656 239.109375 144.394531 239.660156 143.910156 C 239.578125 142.074219 239.398438 139.996094 239.050781 137.667969 C 238.246094 132.265625 236.703125 126.992188 235.449219 123.265625 L 232.015625 124.1875 L 232.015625 125.90625 C 232.015625 126.507812 231.757812 127.074219 231.289062 127.5 C 230.8125 127.925781 230.183594 128.160156 229.519531 128.160156 C 229.425781 128.160156 229.328125 128.15625 229.226562 128.144531 L 223.101562 127.5 C 221.839844 127.371094 220.890625 126.410156 220.890625 125.265625 L 220.890625 122.910156 L 220.765625 122.816406 C 219.808594 122.074219 218.546875 121.96875 217.488281 122.511719 L 217.488281 124.480469 C 217.488281 124.65625 217.457031 124.832031 217.410156 125 C 217.679688 124.695312 217.945312 124.394531 218.238281 124.113281 C 218.3125 124.046875 218.425781 124.046875 218.496094 124.121094 C 218.554688 124.1875 218.5625 124.28125 218.511719 124.351562 L 218.507812 124.359375 C 217.863281 125.230469 217.230469 126.125 216.691406 127.050781 C 216.171875 127.960938 215.636719 128.96875 215.660156 129.894531 C 215.664062 130.117188 215.714844 130.316406 215.8125 130.480469 C 215.859375 130.566406 215.929688 130.636719 215.996094 130.710938 L 216.292969 130.9375 C 216.703125 131.230469 217.171875 131.433594 217.660156 131.597656 C 218.648438 131.898438 219.742188 131.953125 220.800781 131.851562 L 220.8125 131.851562 C 220.894531 131.84375 220.96875 131.90625 220.980469 131.992188 C 220.984375 132.066406 220.9375 132.132812 220.867188 132.152344 C 219.777344 132.453125 218.621094 132.503906 217.484375 132.246094 C 216.914062 132.125 216.363281 131.882812 215.867188 131.558594 L 215.503906 131.289062 C 215.375 131.171875 215.253906 131.046875 215.15625 130.898438 C 214.960938 130.597656 214.878906 130.25 214.859375 129.925781 C 214.84375 129.265625 215.046875 128.695312 215.269531 128.167969 C 215.503906 127.640625 215.769531 127.136719 216.089844 126.675781 C 216.160156 126.570312 216.242188 126.480469 216.3125 126.378906 C 215.917969 126.605469 215.460938 126.730469 214.992188 126.730469 C 214.894531 126.730469 214.792969 126.726562 214.695312 126.714844 L 210.925781 126.316406 C 211.371094 130.183594 211.6875 135.070312 212.574219 137.984375 C 214.160156 143.1875 217.046875 146.605469 219.558594 148.382812 C 208.554688 149.433594 203.429688 151.535156 203.429688 151.535156 Z M 319.324219 300.589844 L 322.722656 291.226562 L 318.742188 291.226562 Z M 277.585938 291.226562 L 281.269531 350.390625 C 292.25 343.617188 302.019531 334.867188 310.613281 324.59375 L 312.453125 319.523438 L 310.636719 291.226562 Z M 281.269531 350.398438 L 281.269531 350.390625 C 281.125 350.480469 280.980469 350.570312 280.832031 350.660156 C 280.976562 350.570312 281.128906 350.488281 281.269531 350.398438 Z M 234.839844 291.226562 C 224.03125 312.941406 218.140625 350.328125 216.484375 362.128906 C 211.90625 363.046875 207.8125 363.71875 204.734375 364.175781 C 208.507812 364.75 212.277344 365.175781 216.039062 365.453125 C 216.039062 365.453125 216.039062 365.453125 216.039062 365.457031 C 216.164062 365.464844 216.292969 365.472656 216.417969 365.480469 C 218.746094 365.644531 221.074219 365.757812 223.390625 365.800781 C 224.21875 365.816406 225.046875 365.828125 225.871094 365.828125 C 243.648438 365.828125 259.515625 361.835938 273.5625 354.726562 L 269.480469 291.226562 Z M 315.113281 274.324219 C 297.730469 274.195312 267.988281 274.160156 251.328125 275.207031 C 247.515625 275.449219 244.035156 277.808594 240.878906 281.609375 L 324.417969 281.609375 C 323.371094 277.554688 319.742188 274.359375 315.113281 274.324219 Z M 174.003906 297.34375 L 177.316406 291.226562 L 106.042969 291.226562 C 102.632812 296.675781 99.53125 302.875 96.828125 308.992188 C 101.171875 312.976562 105.660156 316.804688 110.257812 320.460938 L 115.355469 318.332031 L 114.867188 318.285156 C 114.867188 318.285156 145.761719 306.316406 174.003906 297.34375 Z M 150.582031 273.242188 C 150.5 273.0625 150.425781 272.886719 150.339844 272.710938 C 149.667969 271.25 149.011719 269.78125 148.320312 268.335938 L 146.25 263.984375 L 146.25 263.980469 C 146.1875 263.863281 146.070312 263.785156 145.933594 263.785156 L 112.277344 263.980469 C 112.195312 263.980469 112.125 264.046875 112.125 264.132812 C 112.125 264.214844 112.191406 264.285156 112.277344 264.285156 L 145.707031 264.484375 L 147.609375 268.667969 C 148.265625 270.132812 148.96875 271.578125 149.648438 273.03125 C 150.328125 274.488281 151.027344 275.933594 151.734375 277.375 C 152.429688 278.824219 153.171875 280.25 153.890625 281.6875 C 153.9375 281.769531 154.039062 281.808594 154.128906 281.769531 C 154.191406 281.742188 154.222656 281.675781 154.222656 281.609375 L 182.527344 281.609375 L 186.820312 273.679688 C 185.953125 273.378906 185.054688 273.203125 184.140625 273.195312 C 175.140625 273.113281 162.550781 273.066406 150.582031 273.242188 Z M 189.925781 173.421875 L 192.953125 171.070312 C 191.785156 171.53125 190.746094 172.351562 189.925781 173.421875 Z M 302.445312 176.285156 C 302.445312 171.199219 298.769531 167.203125 294.265625 167.351562 L 266.449219 168.277344 C 269.679688 171.085938 272.304688 174.566406 274.101562 178.492188 L 302.445312 216.921875 Z M 294.265625 254.863281 L 266.316406 253.933594 C 266.851562 244.085938 267.976562 234.277344 269.699219 224.554688 C 270.695312 225.507812 271.738281 226.425781 272.84375 227.289062 L 288.175781 245.828125 C 291.429688 249.761719 296.367188 251.527344 301.117188 250.894531 C 299.660156 253.367188 297.132812 254.957031 294.265625 254.863281"/></g></svg>