<svg xmlns="http://www.w3.org/2000/svg" width="375" viewBox="0 0 375 375" height="375" version="1.0"><defs><clipPath id="a"><path d="M 44.351562 0 L 330.792969 0 L 330.792969 329.589844 L 44.351562 329.589844 Z M 44.351562 0"/></clipPath><clipPath id="b"><path d="M 58 37.433594 L 312 37.433594 L 312 375 L 58 375 Z M 58 37.433594"/></clipPath></defs><g clip-path="url(#a)"><path fill="#FF66C4" d="M 225.75 329.429688 C 89.070312 329.429688 55.898438 273.703125 45.648438 226.5625 C 35.398438 179.425781 87.359375 15.5 147.863281 2.359375 C 208.359375 -10.78125 300.933594 33.304688 322.511719 76.457031 C 342.082031 115.585938 333.328125 329.429688 225.75 329.429688"/></g><path fill="#F2AB8F" d="M 126.398438 57.566406 L 126.246094 61.230469 C 126.894531 60.496094 127.667969 59.867188 128.519531 59.359375 C 128.980469 59.082031 129.464844 58.847656 129.964844 58.648438 C 130.585938 58.398438 131.226562 58.191406 131.882812 58.039062 C 133.066406 57.804688 134.289062 57.730469 135.488281 57.871094 C 135.921875 57.925781 136.351562 58.015625 136.773438 58.121094 C 137.46875 58.296875 138.140625 58.539062 138.769531 58.867188 L 138.179688 55.304688 C 138.179688 55.304688 141.652344 52.578125 142.238281 50.445312 C 142.828125 48.308594 144.480469 45.320312 144.535156 43.1875 C 144.589844 41.050781 141.222656 43.773438 140.476562 45.160156 C 139.730469 46.550781 138.179688 48.898438 138.179688 48.898438 C 138.179688 48.898438 137.324219 39.824219 137.113281 39.71875 L 134.980469 28.609375 C 134.804688 27.683594 133.519531 27.359375 133.042969 28.179688 C 133.003906 28.246094 132.972656 28.324219 132.949219 28.402344 C 132.730469 29.113281 133.195312 37.125 133.457031 41.289062 C 133.308594 41.359375 133.15625 41.425781 133 41.496094 L 129.433594 29.179688 C 129.164062 28.253906 127.847656 27.992188 127.457031 28.835938 C 127.425781 28.90625 127.398438 28.980469 127.382812 29.066406 C 127.21875 29.863281 128.792969 39.632812 129.375 43.167969 C 129.359375 43.175781 129.347656 43.179688 129.339844 43.1875 L 124.886719 32.496094 C 124.519531 31.625 123.195312 31.574219 122.90625 32.476562 C 122.878906 32.550781 122.863281 32.628906 122.855469 32.710938 C 122.792969 33.421875 124.757812 40.664062 125.902344 44.78125 C 125.785156 44.835938 125.675781 44.886719 125.566406 44.941406 L 122.234375 37.082031 C 121.863281 36.207031 120.542969 36.167969 120.253906 37.066406 C 120.226562 37.140625 120.210938 37.222656 120.203125 37.304688 C 120.148438 37.910156 121.582031 43.234375 122.71875 47.347656 C 122.828125 49.761719 123.40625 55.613281 126.398438 57.566406 Z M 206.484375 149.355469 C 203.957031 147.980469 201.449219 146.5625 198.976562 145.082031 C 198.933594 145.058594 198.910156 145.023438 198.90625 144.980469 L 198.640625 144.847656 C 198.640625 144.847656 195.261719 148.597656 193.769531 150.523438 C 193.390625 151.003906 190.621094 151.699219 186.691406 152.464844 C 183.589844 153.070312 179.765625 153.71875 175.820312 154.347656 C 165.007812 156.070312 153.324219 157.625 153.324219 157.625 C 153.324219 157.625 148.4375 152.65625 143.40625 152.65625 C 138.378906 152.65625 135.769531 152.605469 136 153.726562 C 136.234375 154.847656 143.265625 157.515625 143.265625 157.515625 L 123.847656 157.625 C 123.847656 157.625 134.746094 164.558594 142.429688 164.667969 C 150.113281 164.773438 153.324219 164.667969 153.324219 164.667969 C 153.324219 164.667969 165.585938 164.667969 177.785156 164.667969 C 188.292969 164.667969 198.753906 164.667969 201.273438 164.667969 C 206.011719 164.667969 211.96875 155.601562 213.445312 153.226562 C 211.140625 151.914062 208.8125 150.640625 206.484375 149.355469 Z M 197.378906 61.488281 C 197.128906 61.28125 196.90625 61.050781 196.707031 60.800781 C 196.976562 61.203125 197.214844 61.671875 197.324219 62.144531 C 197.339844 61.925781 197.359375 61.703125 197.378906 61.488281 Z M 175.660156 68.453125 L 175.667969 68.453125 C 175.976562 68.402344 176.261719 68.375 176.542969 68.386719 C 176.824219 68.402344 177.097656 68.433594 177.359375 68.503906 C 177.632812 68.5625 177.886719 68.664062 178.136719 68.777344 C 178.390625 68.898438 178.625 69.054688 178.871094 69.238281 L 178.882812 69.242188 C 178.933594 69.277344 178.996094 69.289062 179.058594 69.269531 C 179.15625 69.234375 179.207031 69.121094 179.171875 69.023438 C 179.054688 68.6875 178.8125 68.402344 178.527344 68.175781 C 178.246094 67.941406 177.902344 67.796875 177.550781 67.710938 C 176.847656 67.550781 176.042969 67.683594 175.523438 68.179688 C 175.488281 68.214844 175.464844 68.265625 175.476562 68.320312 C 175.492188 68.410156 175.574219 68.46875 175.660156 68.453125 Z M 176.417969 64.1875 L 176.421875 64.191406 C 176.683594 64.328125 176.929688 64.449219 177.160156 64.59375 C 177.386719 64.738281 177.613281 64.878906 177.816406 65.042969 C 178.027344 65.195312 178.222656 65.378906 178.417969 65.554688 C 178.617188 65.738281 178.796875 65.941406 179 66.148438 L 179.003906 66.15625 C 179.046875 66.199219 179.105469 66.222656 179.171875 66.214844 C 179.277344 66.199219 179.347656 66.105469 179.335938 65.996094 C 179.292969 65.671875 179.15625 65.371094 178.976562 65.097656 C 178.800781 64.820312 178.566406 64.589844 178.300781 64.390625 C 178.039062 64.203125 177.746094 64.042969 177.425781 63.960938 C 177.117188 63.871094 176.789062 63.828125 176.46875 63.882812 C 176.417969 63.890625 176.375 63.921875 176.347656 63.964844 C 176.308594 64.046875 176.335938 64.144531 176.417969 64.1875 Z M 178.929688 71.140625 C 178.453125 71.832031 177.933594 72.542969 177.558594 73.382812 C 177.199219 74.214844 177 75.210938 177.316406 76.148438 C 177.621094 77.074219 178.496094 77.839844 179.480469 77.773438 C 179.550781 77.765625 179.613281 77.714844 179.625 77.640625 C 179.636719 77.554688 179.582031 77.476562 179.496094 77.464844 L 179.488281 77.460938 C 178.714844 77.335938 178.140625 76.65625 177.972656 75.957031 C 177.8125 75.226562 177.972656 74.429688 178.300781 73.710938 C 178.625 72.976562 179.113281 72.28125 179.542969 71.519531 C 179.96875 70.761719 180.367188 69.910156 180.390625 68.992188 C 180.394531 68.910156 180.335938 68.828125 180.25 68.808594 C 180.148438 68.78125 180.050781 68.847656 180.027344 68.945312 C 179.820312 69.738281 179.398438 70.449219 178.929688 71.140625 Z M 180.316406 81.246094 C 180.257812 81.308594 180.261719 81.410156 180.324219 81.472656 C 180.746094 81.863281 181.351562 82.042969 181.929688 82.042969 C 182.515625 82.054688 183.089844 81.890625 183.605469 81.625 C 184.105469 81.351562 184.546875 80.992188 184.914062 80.585938 C 185.285156 80.183594 185.605469 79.753906 185.878906 79.300781 C 185.917969 79.234375 185.914062 79.152344 185.863281 79.089844 C 185.796875 79.003906 185.683594 78.992188 185.601562 79.054688 C 185.226562 79.351562 184.882812 79.671875 184.535156 79.960938 C 184.496094 79.996094 184.457031 80.03125 184.417969 80.0625 C 184.125 80.300781 183.832031 80.519531 183.53125 80.710938 C 183.425781 80.777344 183.324219 80.851562 183.21875 80.910156 C 182.398438 81.351562 181.414062 81.5625 180.492188 81.207031 L 180.488281 81.207031 C 180.429688 81.1875 180.363281 81.199219 180.316406 81.246094 Z M 184.59375 63.484375 C 184.597656 63.570312 184.675781 63.636719 184.765625 63.628906 C 185.324219 63.585938 185.867188 63.597656 186.398438 63.6875 C 186.925781 63.785156 187.433594 63.933594 187.902344 64.167969 C 188.375 64.398438 188.808594 64.707031 189.203125 65.058594 C 189.597656 65.417969 189.941406 65.839844 190.25 66.304688 C 190.292969 66.371094 190.375 66.40625 190.453125 66.382812 C 190.554688 66.355469 190.613281 66.253906 190.589844 66.15625 C 190.4375 65.566406 190.125 65.027344 189.722656 64.5625 C 189.324219 64.089844 188.816406 63.710938 188.257812 63.4375 C 187.691406 63.175781 187.082031 63.019531 186.464844 63.003906 C 185.847656 62.984375 185.234375 63.082031 184.683594 63.328125 C 184.625 63.355469 184.585938 63.417969 184.59375 63.484375 Z M 189.054688 68.578125 C 189.054688 68.027344 188.605469 67.574219 188.050781 67.574219 C 187.496094 67.574219 187.046875 68.027344 187.046875 68.578125 C 187.046875 69.132812 187.496094 69.582031 188.050781 69.582031 C 188.605469 69.582031 189.054688 69.132812 189.054688 68.578125 Z M 175.570312 82.714844 C 173.125 75.523438 175.277344 61.96875 175.507812 56.820312 C 175.558594 55.71875 175.761719 54.625 176.097656 53.578125 C 176.726562 53.03125 177.5 52.644531 178.285156 52.5 C 177.332031 54.875 178.242188 57.644531 179.789062 59.683594 C 180.253906 60.300781 180.804688 60.894531 181.519531 61.195312 C 182.238281 61.492188 183.152344 61.421875 183.675781 60.851562 C 183.691406 60.839844 183.695312 60.820312 183.710938 60.804688 C 183.953125 60.511719 184.042969 60.097656 183.976562 59.722656 C 184.660156 60.515625 185.535156 61.140625 186.511719 61.519531 C 186.996094 61.703125 187.539062 61.828125 188.03125 61.660156 C 188.617188 61.453125 188.996094 60.855469 189.113281 60.242188 C 189.226562 59.632812 189.128906 59.003906 189.03125 58.386719 C 190.152344 60.421875 191.789062 62.171875 193.742188 63.425781 C 194.355469 63.820312 195.035156 64.171875 195.761719 64.171875 C 196.359375 64.167969 196.972656 63.855469 197.246094 63.347656 C 197.191406 64.371094 197.171875 65.398438 197.183594 66.421875 C 197.75 65.597656 198.367188 64.777344 199.253906 64.320312 C 200.226562 63.820312 201.605469 63.9375 202.179688 64.867188 C 202.625 65.582031 202.457031 66.503906 202.222656 67.308594 C 201.816406 68.710938 201.210938 70.09375 200.183594 71.128906 C 199.492188 71.824219 198.578125 72.328125 197.621094 72.496094 C 198.019531 75.488281 198.6875 78.441406 199.628906 81.308594 C 200.535156 84.078125 201.746094 86.84375 203.828125 88.886719 C 203.980469 89.03125 204.148438 89.175781 204.324219 89.300781 C 204.507812 90.726562 204.683594 92.035156 204.824219 93.027344 C 204.980469 94.144531 205.089844 94.847656 205.089844 94.847656 L 201.410156 96.558594 L 192.253906 100.804688 C 190.28125 101.71875 188.085938 100.109375 188.351562 97.953125 C 188.355469 97.933594 188.355469 97.910156 188.359375 97.886719 C 188.488281 96.8125 188.558594 95.640625 188.507812 94.4375 C 188.457031 93.246094 188.292969 92.03125 187.945312 90.847656 C 187.828125 90.441406 187.644531 90.140625 187.414062 89.914062 C 187.625 89.914062 187.835938 89.914062 188.046875 89.90625 C 189.203125 89.847656 190.34375 89.570312 191.429688 89.167969 C 192.496094 88.726562 193.515625 88.144531 194.402344 87.398438 C 195.285156 86.652344 196.050781 85.761719 196.59375 84.753906 C 196.632812 84.671875 196.617188 84.574219 196.546875 84.519531 C 196.460938 84.453125 196.347656 84.46875 196.285156 84.550781 C 195.605469 85.417969 194.824219 86.1875 193.953125 86.835938 C 193.085938 87.480469 192.136719 88.023438 191.125 88.410156 C 190.128906 88.832031 189.066406 89.085938 187.988281 89.21875 C 187.347656 89.300781 186.703125 89.316406 186.050781 89.289062 C 183.503906 88.839844 179.136719 90.089844 176.152344 84.121094 C 175.933594 83.6875 175.742188 83.21875 175.570312 82.714844 Z M 138.765625 59.277344 C 137.679688 58.894531 136.554688 58.65625 135.421875 58.589844 C 134.859375 58.554688 134.292969 58.554688 133.730469 58.597656 C 133.683594 58.601562 133.636719 58.605469 133.585938 58.609375 C 133.070312 58.652344 132.558594 58.722656 132.046875 58.839844 C 130.933594 59.046875 129.863281 59.445312 128.851562 59.960938 C 127.90625 60.445312 127.023438 61.0625 126.21875 61.789062 L 124.257812 108.09375 L 143.652344 108.09375 C 146.515625 108.09375 148.960938 110.175781 149.410156 113.003906 L 150.027344 116.878906 L 153.582031 116.835938 L 145.390625 99.121094 L 138.835938 59.277344 C 138.808594 59.277344 138.789062 59.285156 138.765625 59.277344 Z M 162.4375 97.273438 L 149 98.730469 Z M 162.4375 97.273438"/><path fill="#F9D291" d="M 102.375 192.066406 C 104.304688 192.066406 105.875 193.636719 105.875 195.566406 C 105.875 197.496094 104.304688 199.0625 102.375 199.0625 C 100.445312 199.0625 98.871094 197.496094 98.871094 195.566406 C 98.871094 193.636719 100.445312 192.066406 102.375 192.066406 Z M 102.375 199.878906 C 104.753906 199.878906 106.691406 197.945312 106.691406 195.566406 C 106.691406 193.1875 104.753906 191.253906 102.375 191.253906 C 99.996094 191.253906 98.058594 193.1875 98.058594 195.566406 C 98.058594 197.945312 99.996094 199.878906 102.375 199.878906 Z M 112.5 301.042969 L 96.140625 301.042969 C 95.710938 300.777344 95.300781 300.503906 94.882812 300.230469 L 112.5 300.230469 Z M 116.078125 300.230469 L 126.9375 300.230469 L 126.9375 301.042969 L 116.078125 301.042969 Z M 95.453125 295.367188 L 126.9375 295.367188 L 126.9375 296.183594 L 95.453125 296.183594 Z M 103.488281 290.507812 L 126.9375 290.507812 L 126.9375 291.320312 L 103.488281 291.320312 Z M 112.824219 309.953125 L 126.9375 309.953125 L 126.9375 310.765625 L 114.625 310.765625 C 114.015625 310.496094 113.421875 310.222656 112.824219 309.953125 Z M 110.21875 305.09375 L 126.9375 305.09375 L 126.9375 305.90625 L 110.21875 305.90625 Z M 103.058594 305.09375 L 105.660156 305.09375 L 105.660156 305.90625 L 104.558594 305.90625 C 104.054688 305.636719 103.558594 305.363281 103.058594 305.09375 Z M 87.882812 295.367188 L 91.871094 295.367188 L 91.871094 296.183594 L 88.988281 296.183594 C 88.617188 295.910156 88.246094 295.640625 87.882812 295.367188 Z M 99.902344 291.320312 L 82.800781 291.320312 C 82.492188 291.0625 82.1875 290.796875 81.882812 290.535156 L 81.882812 290.507812 L 99.902344 290.507812 Z M 81.882812 267.203125 L 112.5 267.203125 L 112.5 268.015625 L 81.882812 268.015625 Z M 116.078125 267.203125 L 126.9375 267.203125 L 126.9375 268.015625 L 116.078125 268.015625 Z M 95.453125 262.34375 L 126.9375 262.34375 L 126.9375 263.15625 L 95.453125 263.15625 Z M 103.488281 257.480469 L 126.9375 257.480469 L 126.9375 258.292969 L 103.488281 258.292969 Z M 81.882812 276.925781 L 126.9375 276.925781 L 126.9375 277.738281 L 81.882812 277.738281 Z M 116.078125 282.601562 L 81.882812 282.601562 L 81.882812 281.789062 L 116.078125 281.789062 Z M 110.21875 272.0625 L 126.9375 272.0625 L 126.9375 272.878906 L 110.21875 272.878906 Z M 81.882812 272.0625 L 105.660156 272.0625 L 105.660156 272.878906 L 81.882812 272.878906 Z M 81.882812 262.34375 L 91.871094 262.34375 L 91.871094 263.15625 L 81.882812 263.15625 Z M 81.882812 257.480469 L 99.902344 257.480469 L 99.902344 258.292969 L 81.882812 258.292969 Z M 81.882812 247.757812 L 90.894531 247.757812 L 90.894531 248.570312 L 81.882812 248.570312 Z M 99.902344 243.710938 L 81.882812 243.710938 L 81.882812 242.898438 L 99.902344 242.898438 Z M 76.050781 235.921875 L 133.3125 235.921875 L 133.3125 317.671875 C 133.039062 317.589844 132.773438 317.5 132.5 317.414062 L 132.5 236.738281 L 76.863281 236.738281 L 76.863281 285.933594 C 76.585938 285.664062 76.320312 285.390625 76.050781 285.117188 Z M 76.863281 214.027344 L 91.253906 207.273438 L 113.335938 228.519531 L 76.863281 228.519531 Z M 76.863281 184.566406 L 132.5 184.566406 L 132.5 216.660156 L 116.796875 205.253906 L 116.605469 205.109375 L 98.734375 213.34375 L 91.414062 206.300781 L 76.863281 213.128906 Z M 132.5 228.519531 L 114.507812 228.519531 L 99.363281 213.949219 L 116.511719 206.050781 L 132.5 217.664062 Z M 76.050781 229.332031 L 133.3125 229.332031 L 133.3125 183.75 L 76.050781 183.75 Z M 277.476562 61.335938 C 277.476562 63.265625 275.90625 64.835938 273.972656 64.835938 C 272.042969 64.835938 270.476562 63.265625 270.476562 61.335938 C 270.476562 59.410156 272.042969 57.839844 273.972656 57.839844 C 275.90625 57.839844 277.476562 59.410156 277.476562 61.335938 Z M 269.660156 61.335938 C 269.660156 63.71875 271.59375 65.652344 273.972656 65.652344 C 276.355469 65.652344 278.289062 63.71875 278.289062 61.335938 C 278.289062 58.960938 276.355469 57.027344 273.972656 57.027344 C 271.59375 57.027344 269.660156 58.960938 269.660156 61.335938 Z M 284.101562 166.816406 L 253.484375 166.816406 L 253.484375 166.003906 L 284.101562 166.003906 Z M 287.683594 166.003906 L 298.535156 166.003906 L 298.535156 166.816406 L 287.683594 166.816406 Z M 267.054688 161.140625 L 298.535156 161.140625 L 298.535156 161.957031 L 267.054688 161.957031 Z M 275.085938 156.277344 L 298.535156 156.277344 L 298.535156 157.09375 L 275.085938 157.09375 Z M 253.484375 175.726562 L 298.535156 175.726562 L 298.535156 176.539062 L 253.484375 176.539062 Z M 253.484375 180.585938 L 287.683594 180.585938 L 287.683594 181.402344 L 253.484375 181.402344 Z M 281.820312 170.867188 L 298.535156 170.867188 L 298.535156 171.679688 L 281.820312 171.679688 Z M 277.257812 171.679688 L 253.484375 171.679688 L 253.484375 170.867188 L 277.257812 170.867188 Z M 263.472656 161.957031 L 253.484375 161.957031 L 253.484375 161.140625 L 263.472656 161.140625 Z M 271.507812 157.09375 L 253.484375 157.09375 L 253.484375 156.277344 L 271.507812 156.277344 Z M 284.101562 133.789062 L 253.484375 133.789062 L 253.484375 132.976562 L 284.101562 132.976562 Z M 287.683594 132.976562 L 298.535156 132.976562 L 298.535156 133.789062 L 287.683594 133.789062 Z M 267.054688 128.117188 L 298.535156 128.117188 L 298.535156 128.929688 L 267.054688 128.929688 Z M 275.085938 123.253906 L 298.535156 123.253906 L 298.535156 124.066406 L 275.085938 124.066406 Z M 253.484375 142.703125 L 298.535156 142.703125 L 298.535156 143.515625 L 253.484375 143.515625 Z M 287.683594 148.375 L 253.484375 148.375 L 253.484375 147.5625 L 287.683594 147.5625 Z M 281.820312 137.835938 L 298.535156 137.835938 L 298.535156 138.652344 L 281.820312 138.652344 Z M 277.257812 138.652344 L 253.484375 138.652344 L 253.484375 137.835938 L 277.257812 137.835938 Z M 263.472656 128.929688 L 253.484375 128.929688 L 253.484375 128.117188 L 263.472656 128.117188 Z M 271.507812 124.066406 L 253.484375 124.066406 L 253.484375 123.253906 L 271.507812 123.253906 Z M 262.496094 114.34375 L 253.484375 114.34375 L 253.484375 113.53125 L 262.496094 113.53125 Z M 271.507812 109.480469 L 253.484375 109.480469 L 253.484375 108.667969 L 271.507812 108.667969 Z M 248.464844 102.511719 L 304.097656 102.511719 L 304.097656 190.882812 L 248.464844 190.882812 Z M 247.648438 191.695312 L 304.914062 191.695312 L 304.914062 101.695312 L 247.648438 101.695312 Z M 304.097656 94.292969 L 286.109375 94.292969 L 270.964844 79.722656 L 288.113281 71.824219 L 304.097656 83.4375 Z M 248.464844 94.292969 L 248.464844 79.800781 L 262.855469 73.046875 L 284.933594 94.292969 Z M 304.097656 52.976562 L 304.097656 82.433594 L 288.207031 70.886719 L 270.335938 79.117188 L 263.015625 72.074219 L 248.464844 78.902344 L 248.464844 50.339844 L 301.214844 50.339844 C 300.910156 50.066406 300.59375 49.792969 300.28125 49.523438 L 247.648438 49.523438 L 247.648438 95.105469 L 304.914062 95.105469 L 304.914062 53.753906 C 304.648438 53.496094 304.371094 53.234375 304.097656 52.976562 Z M 51.949219 40.367188 L 100.746094 40.367188 L 100.746094 90.121094 L 51.949219 90.121094 Z M 116.292969 137.480469 C 110.269531 135.746094 107.359375 128.234375 111.023438 128.234375 C 114.085938 128.234375 115.203125 130.066406 115.203125 130.066406 C 115.203125 130.066406 116.347656 128.234375 118.671875 128.234375 C 122.339844 128.234375 121.777344 135.746094 116.292969 137.480469 Z M 239.644531 366.882812 C 239.460938 367.777344 238.925781 367.875 238.445312 367.097656 C 237.964844 366.320312 237.71875 364.964844 237.902344 364.066406 C 238.082031 363.171875 238.621094 363.074219 239.101562 363.851562 C 239.582031 364.628906 239.828125 365.984375 239.644531 366.882812 Z M 158.992188 366.402344 C 158.890625 367.601562 157.839844 368.574219 156.636719 368.574219 C 155.433594 368.574219 154.539062 367.601562 154.640625 366.402344 C 154.738281 365.199219 155.789062 364.226562 156.992188 364.226562 C 158.195312 364.226562 159.09375 365.199219 158.992188 366.402344 Z M 206.53125 96.519531 C 205.03125 97.363281 203.503906 98.15625 201.976562 98.945312 C 200.9375 99.480469 199.886719 100.003906 198.839844 100.523438 C 198.347656 100.765625 197.859375 101.007812 197.367188 101.253906 C 195.828125 101.980469 194.230469 102.804688 192.4375 103.042969 C 191.546875 103.160156 190.628906 103.117188 189.761719 102.871094 C 188.898438 102.613281 188.074219 102.148438 187.507812 101.449219 C 187.453125 101.378906 187.460938 101.285156 187.527344 101.230469 C 187.59375 101.179688 187.679688 101.183594 187.734375 101.238281 C 188.945312 102.390625 190.746094 102.652344 192.335938 102.363281 C 193.960938 102.070312 195.476562 101.300781 197.007812 100.523438 C 197.898438 100.101562 198.78125 99.671875 199.664062 99.246094 C 200.332031 98.929688 200.996094 98.609375 201.664062 98.296875 C 203.222656 97.574219 204.78125 96.859375 206.371094 96.1875 C 206.460938 96.148438 206.570312 96.195312 206.613281 96.285156 C 206.648438 96.375 206.613281 96.472656 206.53125 96.519531 Z M 204.824219 93.027344 C 204.980469 94.144531 205.089844 94.847656 205.089844 94.847656 L 201.410156 96.558594 L 192.253906 100.804688 C 190.28125 101.71875 188.085938 100.109375 188.351562 97.953125 C 188.355469 97.933594 188.355469 97.910156 188.359375 97.886719 C 188.488281 96.8125 188.558594 95.640625 188.507812 94.4375 L 162.4375 97.273438 L 149 98.730469 C 149.703125 100.363281 150.378906 102.003906 151.039062 103.652344 C 151.765625 105.453125 152.449219 107.273438 153.15625 109.078125 L 155.171875 114.550781 C 155.441406 115.300781 155.703125 116.050781 155.96875 116.804688 C 156.34375 117.886719 156.714844 118.972656 157.066406 120.0625 C 157.097656 120.160156 157.042969 120.261719 156.945312 120.292969 C 156.855469 120.320312 156.757812 120.277344 156.722656 120.191406 C 156.234375 119.074219 155.769531 117.945312 155.308594 116.8125 C 155.035156 116.140625 154.765625 115.472656 154.496094 114.804688 L 152.394531 109.367188 C 151.730469 107.542969 151.042969 105.722656 150.394531 103.894531 C 149.792969 102.191406 149.199219 100.488281 148.644531 98.769531 L 145.390625 99.121094 L 153.582031 116.835938 L 155.160156 120.257812 L 172.824219 123.542969 C 173.039062 122.097656 173.347656 120.660156 173.730469 119.246094 C 174.195312 117.53125 174.800781 115.855469 175.476562 114.210938 C 176.183594 112.582031 176.96875 110.980469 177.871094 109.449219 C 178.777344 107.921875 179.777344 106.449219 180.898438 105.074219 C 180.960938 104.992188 181.074219 104.984375 181.15625 105.042969 C 181.226562 105.109375 181.242188 105.210938 181.191406 105.289062 C 180.238281 106.765625 179.328125 108.265625 178.5 109.804688 C 177.667969 111.34375 176.894531 112.910156 176.226562 114.53125 C 175.65625 115.820312 175.171875 117.144531 174.722656 118.484375 C 174.613281 118.800781 174.496094 119.121094 174.394531 119.441406 C 173.976562 120.730469 173.625 122.042969 173.292969 123.359375 C 173.273438 123.445312 173.25 123.53125 173.230469 123.617188 L 173.257812 123.621094 C 172.4375 130.515625 173.730469 141.546875 175.261719 151.003906 L 186.859375 151.003906 C 186.859375 151.507812 186.800781 151.992188 186.691406 152.464844 C 190.621094 151.699219 193.390625 151.003906 193.769531 150.523438 C 195.261719 148.597656 198.640625 144.847656 198.640625 144.847656 L 198.90625 144.980469 C 198.894531 144.945312 198.898438 144.90625 198.921875 144.871094 C 198.960938 144.800781 199.054688 144.773438 199.128906 144.8125 C 201.652344 146.1875 204.226562 147.476562 206.777344 148.808594 C 209.210938 150.0625 211.644531 151.335938 214.03125 152.683594 C 216.003906 148.550781 217.75 144.3125 219.207031 139.972656 C 219.953125 137.738281 220.65625 135.488281 221.265625 133.210938 C 221.882812 130.933594 222.457031 128.644531 222.929688 126.332031 C 222.953125 126.230469 223.046875 126.167969 223.148438 126.191406 C 223.25 126.210938 223.3125 126.300781 223.292969 126.398438 C 222.898438 128.738281 222.445312 131.066406 221.875 133.367188 C 221.300781 135.667969 220.667969 137.957031 219.929688 140.210938 C 218.453125 144.71875 216.671875 149.136719 214.550781 153.386719 L 214.367188 153.75 L 214.019531 153.546875 C 213.828125 153.441406 213.636719 153.335938 213.445312 153.226562 C 211.96875 155.601562 206.011719 164.667969 201.273438 164.667969 C 198.753906 164.667969 188.292969 164.667969 177.785156 164.667969 C 178.335938 167.355469 178.710938 168.988281 178.710938 168.988281 L 190.863281 168.988281 C 190.863281 168.949219 190.863281 168.914062 190.863281 168.878906 C 190.863281 168.789062 190.933594 168.71875 191.023438 168.722656 C 191.085938 168.722656 191.136719 168.753906 191.164062 168.804688 C 191.195312 168.863281 191.21875 168.925781 191.242188 168.988281 L 206.085938 168.988281 C 206.117188 168.925781 206.167969 168.878906 206.234375 168.886719 C 206.296875 168.890625 206.347656 168.929688 206.371094 168.980469 C 206.371094 168.984375 206.371094 168.984375 206.371094 168.988281 L 212.832031 168.988281 C 212.832031 168.988281 229.921875 134.832031 226.929688 116.042969 C 224.332031 99.71875 208.847656 94.199219 204.824219 93.027344"/><path fill="#ABDFEB" d="M 56.730469 46.628906 L 95.960938 46.628906 L 95.960938 77.023438 L 56.730469 77.023438 Z M 255.546875 285.792969 L 312 285.792969 L 312 335.546875 L 255.546875 335.546875 Z M 312 228.84375 L 312 278.597656 L 255.546875 278.597656 L 255.546875 228.84375 Z M 191.582031 169.910156 C 191.496094 169.59375 191.386719 169.285156 191.242188 168.988281 L 206.085938 168.988281 C 206.082031 169.003906 206.066406 169.011719 206.066406 169.03125 C 206.03125 169.441406 206.046875 169.839844 206.066406 170.242188 C 206.085938 170.640625 206.144531 171.035156 206.199219 171.429688 C 206.261719 171.824219 206.332031 172.214844 206.433594 172.601562 C 206.5 172.863281 206.578125 173.125 206.664062 173.382812 C 206.3125 173.378906 205.960938 173.367188 205.609375 173.363281 L 198.679688 173.316406 L 191.75 173.382812 C 191.699219 173.382812 191.648438 173.382812 191.59375 173.382812 C 191.710938 173.011719 191.765625 172.632812 191.796875 172.246094 C 191.835938 171.855469 191.820312 171.460938 191.789062 171.070312 C 191.746094 170.679688 191.691406 170.292969 191.582031 169.910156 Z M 211.9375 280.257812 C 211.863281 280.308594 211.761719 280.292969 211.699219 280.222656 C 210.839844 279.238281 210.074219 278.175781 209.375 277.0625 C 208.679688 275.953125 208.078125 274.785156 207.523438 273.597656 C 207.007812 272.390625 206.527344 271.167969 206.167969 269.910156 C 205.800781 268.648438 205.511719 267.371094 205.347656 266.074219 C 205.335938 265.988281 205.398438 265.914062 205.484375 265.898438 C 205.558594 265.890625 205.632812 265.9375 205.652344 266.011719 C 206.011719 267.257812 206.386719 268.488281 206.820312 269.695312 C 207.257812 270.902344 207.71875 272.101562 208.265625 273.261719 C 208.78125 274.4375 209.375 275.574219 209.996094 276.695312 C 210.617188 277.820312 211.296875 278.914062 211.996094 280 C 212.050781 280.085938 212.023438 280.203125 211.9375 280.257812 Z M 205.214844 191.292969 C 205.203125 191.246094 205.210938 191.203125 205.226562 191.167969 C 205.34375 190.949219 205.488281 190.765625 205.636719 190.59375 C 205.785156 190.414062 205.957031 190.265625 206.128906 190.113281 C 206.304688 189.976562 206.484375 189.835938 206.683594 189.722656 C 206.886719 189.609375 207.089844 189.5 207.324219 189.429688 C 207.433594 189.402344 207.542969 189.464844 207.570312 189.570312 C 207.589844 189.621094 207.578125 189.675781 207.554688 189.71875 C 207.441406 189.9375 207.292969 190.113281 207.140625 190.285156 C 206.988281 190.457031 206.816406 190.605469 206.640625 190.746094 C 206.457031 190.882812 206.277344 191.019531 206.070312 191.125 C 205.871094 191.238281 205.664062 191.34375 205.425781 191.410156 C 205.335938 191.433594 205.242188 191.378906 205.214844 191.292969 Z M 226.316406 258.65625 C 227.667969 244.992188 236.121094 224.601562 230.523438 207.042969 C 224.921875 189.480469 212.832031 168.988281 212.832031 168.988281 L 206.371094 168.988281 C 206.53125 169.363281 206.644531 169.746094 206.75 170.132812 C 206.855469 170.515625 206.929688 170.90625 207 171.300781 C 207.0625 171.691406 207.121094 172.085938 207.144531 172.484375 C 207.167969 172.785156 207.175781 173.089844 207.167969 173.394531 C 208.957031 173.425781 210.75 173.464844 212.535156 173.535156 C 212.636719 173.542969 212.71875 173.628906 212.714844 173.730469 C 212.707031 173.828125 212.632812 173.902344 212.535156 173.910156 C 210.226562 174.003906 207.917969 174.046875 205.609375 174.082031 L 198.679688 174.128906 L 196.871094 174.113281 C 197.3125 175.472656 197.808594 176.808594 198.394531 178.105469 C 198.996094 179.433594 199.65625 180.738281 200.429688 181.972656 C 201.167969 183.226562 202.015625 184.417969 202.921875 185.5625 C 203.777344 186.652344 204.710938 187.683594 205.683594 188.679688 C 205.769531 188.609375 205.851562 188.527344 205.9375 188.453125 C 206.339844 188.117188 206.753906 187.792969 207.195312 187.515625 C 207.640625 187.226562 208.089844 186.964844 208.578125 186.757812 C 208.671875 186.714844 208.78125 186.761719 208.820312 186.855469 C 208.855469 186.929688 208.835938 187.011719 208.78125 187.0625 C 208.40625 187.429688 208.015625 187.757812 207.625 188.089844 L 206.457031 189.074219 L 205.277344 190.046875 C 204.878906 190.367188 204.488281 190.691406 204.0625 190.996094 C 203.988281 191.046875 203.890625 191.03125 203.839844 190.960938 C 203.800781 190.90625 203.800781 190.835938 203.835938 190.78125 C 204.117188 190.335938 204.457031 189.933594 204.804688 189.546875 C 204.992188 189.335938 205.1875 189.140625 205.386719 188.953125 C 204.292969 188.074219 203.289062 187.082031 202.367188 186.019531 C 201.386719 184.890625 200.519531 183.664062 199.730469 182.394531 C 198.976562 181.097656 198.292969 179.765625 197.757812 178.367188 C 197.222656 176.984375 196.800781 175.5625 196.535156 174.109375 L 191.75 174.066406 C 189.441406 174.027344 187.132812 173.980469 184.820312 173.878906 C 184.734375 173.875 184.667969 173.800781 184.671875 173.714844 C 184.675781 173.636719 184.738281 173.570312 184.820312 173.570312 C 186.953125 173.472656 189.085938 173.429688 191.222656 173.390625 C 191.222656 173.386719 191.222656 173.386719 191.222656 173.386719 C 191.152344 173.003906 191.121094 172.628906 191.078125 172.253906 L 190.980469 171.140625 L 190.902344 170.019531 C 190.882812 169.679688 190.863281 169.339844 190.863281 168.988281 L 178.710938 168.988281 L 198.703125 245.457031 L 228.429688 359.175781 C 229.292969 359.09375 230.164062 359.046875 231.027344 359.011719 C 231.992188 358.964844 232.957031 358.953125 233.917969 358.945312 C 234.886719 358.945312 235.851562 358.953125 236.8125 358.996094 C 237.777344 359.03125 238.742188 359.070312 239.703125 359.167969 C 239.804688 359.179688 239.882812 359.269531 239.871094 359.375 C 239.863281 359.457031 239.789062 359.527344 239.703125 359.539062 C 238.742188 359.632812 237.777344 359.679688 236.8125 359.714844 C 235.851562 359.753906 234.886719 359.757812 233.917969 359.761719 C 232.957031 359.75 231.992188 359.742188 231.027344 359.699219 C 230.195312 359.664062 229.359375 359.613281 228.523438 359.542969 L 229.054688 361.558594 L 239.742188 361.558594 C 239.742188 361.558594 244.023438 331.777344 237.273438 307.4375 C 230.527344 283.097656 224.964844 272.320312 226.316406 258.65625"/><g clip-path="url(#b)"><path fill="#253C4C" d="M 276.679688 319.003906 C 275.886719 318.222656 274.425781 317.699219 272.75 317.699219 C 270.226562 317.699219 268.183594 318.882812 268.183594 320.34375 C 268.183594 321.8125 270.226562 322.996094 272.75 322.996094 C 275.246094 322.996094 277.269531 321.832031 277.308594 320.390625 L 277.34375 320.394531 L 279.261719 303.539062 L 297.769531 301.199219 L 296.019531 316.5625 C 295.226562 315.78125 293.761719 315.253906 292.085938 315.253906 C 289.566406 315.253906 287.523438 316.4375 287.523438 317.902344 C 287.523438 319.367188 289.566406 320.550781 292.085938 320.550781 C 294.582031 320.550781 296.605469 319.390625 296.648438 317.945312 L 296.679688 317.949219 L 298.695312 300.261719 L 278.523438 302.8125 Z M 58.878906 78.355469 L 97.296875 78.355469 L 97.296875 48.777344 L 58.878906 48.777344 Z M 58.0625 47.964844 L 98.113281 47.964844 L 98.113281 79.167969 L 58.0625 79.167969 Z M 312 271.082031 L 312 271.894531 L 270.921875 271.894531 C 270.734375 272.839844 269.898438 273.550781 268.902344 273.550781 C 267.898438 273.550781 267.070312 272.839844 266.878906 271.894531 L 255.546875 271.894531 L 255.546875 271.082031 L 266.878906 271.082031 C 267.070312 270.140625 267.898438 269.429688 268.902344 269.429688 C 269.898438 269.429688 270.734375 270.140625 270.921875 271.082031 Z M 188.050781 67.574219 C 188.605469 67.574219 189.054688 68.027344 189.054688 68.578125 C 189.054688 69.132812 188.605469 69.582031 188.050781 69.582031 C 187.496094 69.582031 187.046875 69.132812 187.046875 68.578125 C 187.046875 68.027344 187.496094 67.574219 188.050781 67.574219 Z M 125.835938 61.921875 C 125.785156 61.863281 125.78125 61.777344 125.828125 61.722656 C 125.957031 61.550781 126.101562 61.390625 126.246094 61.230469 C 126.894531 60.496094 127.667969 59.867188 128.519531 59.359375 C 128.980469 59.082031 129.464844 58.847656 129.964844 58.648438 C 130.585938 58.398438 131.226562 58.191406 131.882812 58.039062 C 133.066406 57.804688 134.289062 57.730469 135.488281 57.871094 C 135.921875 57.925781 136.351562 58.015625 136.773438 58.121094 C 137.46875 58.296875 138.140625 58.539062 138.769531 58.867188 C 138.816406 58.890625 138.871094 58.914062 138.917969 58.941406 C 139.007812 58.988281 139.039062 59.101562 138.992188 59.191406 C 138.957031 59.25 138.894531 59.273438 138.835938 59.277344 C 138.808594 59.277344 138.789062 59.285156 138.765625 59.277344 C 137.679688 58.894531 136.554688 58.65625 135.421875 58.589844 C 134.859375 58.554688 134.292969 58.554688 133.730469 58.597656 C 133.683594 58.601562 133.636719 58.605469 133.585938 58.609375 C 133.070312 58.652344 132.558594 58.722656 132.046875 58.839844 C 130.933594 59.046875 129.863281 59.445312 128.851562 59.960938 C 127.90625 60.445312 127.023438 61.0625 126.21875 61.789062 C 126.164062 61.835938 126.109375 61.878906 126.054688 61.929688 C 125.996094 61.988281 125.898438 61.984375 125.835938 61.921875 Z M 227.996094 359.339844 C 228.003906 359.261719 228.0625 359.203125 228.136719 359.199219 C 228.234375 359.1875 228.332031 359.183594 228.429688 359.175781 C 229.292969 359.09375 230.164062 359.046875 231.027344 359.011719 C 231.992188 358.964844 232.957031 358.953125 233.917969 358.945312 C 234.886719 358.945312 235.851562 358.953125 236.8125 358.996094 C 237.777344 359.03125 238.742188 359.070312 239.703125 359.167969 C 239.804688 359.179688 239.882812 359.269531 239.871094 359.375 C 239.863281 359.457031 239.789062 359.527344 239.703125 359.539062 C 238.742188 359.632812 237.777344 359.679688 236.8125 359.714844 C 235.851562 359.753906 234.886719 359.757812 233.917969 359.761719 C 232.957031 359.75 231.992188 359.742188 231.027344 359.699219 C 230.195312 359.664062 229.359375 359.613281 228.523438 359.542969 C 228.394531 359.527344 228.265625 359.523438 228.136719 359.507812 C 228.050781 359.5 227.988281 359.425781 227.996094 359.339844 Z M 211.996094 280 C 212.050781 280.085938 212.023438 280.203125 211.9375 280.257812 C 211.863281 280.308594 211.761719 280.292969 211.699219 280.222656 C 210.839844 279.238281 210.074219 278.175781 209.375 277.0625 C 208.679688 275.953125 208.078125 274.785156 207.523438 273.597656 C 207.007812 272.390625 206.527344 271.167969 206.167969 269.910156 C 205.800781 268.648438 205.511719 267.371094 205.347656 266.074219 C 205.335938 265.988281 205.398438 265.914062 205.484375 265.898438 C 205.558594 265.890625 205.632812 265.9375 205.652344 266.011719 C 206.011719 267.257812 206.386719 268.488281 206.820312 269.695312 C 207.257812 270.902344 207.71875 272.101562 208.265625 273.261719 C 208.78125 274.4375 209.375 275.574219 209.996094 276.695312 C 210.617188 277.820312 211.296875 278.914062 211.996094 280 Z M 205.425781 191.410156 C 205.335938 191.433594 205.242188 191.378906 205.214844 191.292969 C 205.203125 191.246094 205.210938 191.203125 205.226562 191.167969 C 205.34375 190.949219 205.488281 190.765625 205.636719 190.59375 C 205.785156 190.414062 205.957031 190.265625 206.128906 190.113281 C 206.304688 189.976562 206.484375 189.835938 206.683594 189.722656 C 206.886719 189.609375 207.089844 189.5 207.324219 189.429688 C 207.433594 189.402344 207.542969 189.464844 207.570312 189.570312 C 207.589844 189.621094 207.578125 189.675781 207.554688 189.71875 C 207.441406 189.9375 207.292969 190.113281 207.140625 190.285156 C 206.988281 190.457031 206.816406 190.605469 206.640625 190.746094 C 206.457031 190.882812 206.277344 191.019531 206.070312 191.125 C 205.871094 191.238281 205.664062 191.34375 205.425781 191.410156 Z M 212.714844 173.730469 C 212.707031 173.828125 212.632812 173.902344 212.535156 173.910156 C 210.226562 174.003906 207.917969 174.046875 205.609375 174.082031 L 198.679688 174.128906 L 196.871094 174.113281 C 197.3125 175.472656 197.808594 176.808594 198.394531 178.105469 C 198.996094 179.433594 199.65625 180.738281 200.429688 181.972656 C 201.167969 183.226562 202.015625 184.417969 202.921875 185.5625 C 203.777344 186.652344 204.710938 187.683594 205.683594 188.679688 C 205.769531 188.609375 205.851562 188.527344 205.9375 188.453125 C 206.339844 188.117188 206.753906 187.792969 207.195312 187.515625 C 207.640625 187.226562 208.089844 186.964844 208.578125 186.757812 C 208.671875 186.714844 208.78125 186.761719 208.820312 186.855469 C 208.855469 186.929688 208.835938 187.011719 208.78125 187.0625 C 208.40625 187.429688 208.015625 187.757812 207.625 188.089844 L 206.457031 189.074219 L 205.277344 190.046875 C 204.878906 190.367188 204.488281 190.691406 204.0625 190.996094 C 203.988281 191.046875 203.890625 191.03125 203.839844 190.960938 C 203.800781 190.90625 203.800781 190.835938 203.835938 190.78125 C 204.117188 190.335938 204.457031 189.933594 204.804688 189.546875 C 204.992188 189.335938 205.1875 189.140625 205.386719 188.953125 C 204.292969 188.074219 203.289062 187.082031 202.367188 186.019531 C 201.386719 184.890625 200.519531 183.664062 199.730469 182.394531 C 198.976562 181.097656 198.292969 179.765625 197.757812 178.367188 C 197.222656 176.984375 196.800781 175.5625 196.535156 174.109375 L 191.75 174.066406 C 189.441406 174.027344 187.132812 173.980469 184.820312 173.878906 C 184.734375 173.875 184.667969 173.800781 184.671875 173.714844 C 184.675781 173.636719 184.738281 173.570312 184.820312 173.570312 C 186.953125 173.472656 189.085938 173.429688 191.222656 173.390625 C 191.222656 173.386719 191.222656 173.386719 191.222656 173.386719 C 191.152344 173.003906 191.121094 172.628906 191.078125 172.253906 L 190.980469 171.140625 L 190.902344 170.019531 C 190.882812 169.679688 190.863281 169.339844 190.863281 168.988281 C 190.863281 168.949219 190.863281 168.914062 190.863281 168.878906 C 190.863281 168.789062 190.933594 168.71875 191.023438 168.722656 C 191.085938 168.722656 191.136719 168.753906 191.164062 168.804688 C 191.195312 168.863281 191.21875 168.925781 191.242188 168.988281 C 191.386719 169.285156 191.496094 169.59375 191.582031 169.910156 C 191.691406 170.292969 191.746094 170.679688 191.789062 171.070312 C 191.820312 171.460938 191.835938 171.855469 191.796875 172.246094 C 191.765625 172.632812 191.710938 173.011719 191.59375 173.382812 C 191.648438 173.382812 191.699219 173.382812 191.75 173.382812 L 198.679688 173.316406 L 205.609375 173.363281 C 205.960938 173.367188 206.3125 173.378906 206.664062 173.382812 C 206.578125 173.125 206.5 172.863281 206.433594 172.601562 C 206.332031 172.214844 206.261719 171.824219 206.199219 171.429688 C 206.144531 171.035156 206.085938 170.640625 206.066406 170.242188 C 206.046875 169.839844 206.03125 169.441406 206.066406 169.03125 C 206.066406 169.011719 206.082031 169.003906 206.085938 168.988281 C 206.117188 168.925781 206.167969 168.878906 206.234375 168.886719 C 206.296875 168.890625 206.347656 168.929688 206.371094 168.980469 C 206.371094 168.984375 206.371094 168.984375 206.371094 168.988281 C 206.53125 169.363281 206.644531 169.746094 206.75 170.132812 C 206.855469 170.515625 206.929688 170.90625 207 171.300781 C 207.0625 171.691406 207.121094 172.085938 207.144531 172.484375 C 207.167969 172.785156 207.175781 173.089844 207.167969 173.394531 C 208.957031 173.425781 210.75 173.464844 212.535156 173.535156 C 212.636719 173.542969 212.71875 173.628906 212.714844 173.730469 Z M 223.292969 126.398438 C 222.898438 128.738281 222.445312 131.066406 221.875 133.367188 C 221.300781 135.667969 220.667969 137.957031 219.929688 140.210938 C 218.453125 144.71875 216.671875 149.136719 214.550781 153.386719 L 214.367188 153.75 L 214.019531 153.546875 C 213.828125 153.441406 213.636719 153.335938 213.445312 153.226562 C 211.140625 151.914062 208.8125 150.640625 206.484375 149.355469 C 203.957031 147.980469 201.449219 146.5625 198.976562 145.082031 C 198.933594 145.058594 198.910156 145.023438 198.90625 144.980469 C 198.894531 144.945312 198.898438 144.90625 198.921875 144.871094 C 198.960938 144.800781 199.054688 144.773438 199.128906 144.8125 C 201.652344 146.1875 204.226562 147.476562 206.777344 148.808594 C 209.210938 150.0625 211.644531 151.335938 214.03125 152.683594 C 216.003906 148.550781 217.75 144.3125 219.207031 139.972656 C 219.953125 137.738281 220.65625 135.488281 221.265625 133.210938 C 221.882812 130.933594 222.457031 128.644531 222.929688 126.332031 C 222.953125 126.230469 223.046875 126.167969 223.148438 126.191406 C 223.25 126.210938 223.3125 126.300781 223.292969 126.398438 Z M 148.644531 98.769531 C 148.601562 98.636719 148.554688 98.507812 148.511719 98.375 C 148.484375 98.292969 148.53125 98.207031 148.613281 98.179688 C 148.6875 98.15625 148.769531 98.195312 148.804688 98.265625 C 148.871094 98.417969 148.933594 98.574219 149 98.730469 C 149.703125 100.363281 150.378906 102.003906 151.039062 103.652344 C 151.765625 105.453125 152.449219 107.273438 153.15625 109.078125 L 155.171875 114.550781 C 155.441406 115.300781 155.703125 116.050781 155.96875 116.804688 C 156.34375 117.886719 156.714844 118.972656 157.066406 120.0625 C 157.097656 120.160156 157.042969 120.261719 156.945312 120.292969 C 156.855469 120.320312 156.757812 120.277344 156.722656 120.191406 C 156.234375 119.074219 155.769531 117.945312 155.308594 116.8125 C 155.035156 116.140625 154.765625 115.472656 154.496094 114.804688 L 152.394531 109.367188 C 151.730469 107.542969 151.042969 105.722656 150.394531 103.894531 C 149.792969 102.191406 149.199219 100.488281 148.644531 98.769531 Z M 187.507812 101.449219 C 187.453125 101.378906 187.460938 101.285156 187.527344 101.230469 C 187.59375 101.179688 187.679688 101.183594 187.734375 101.238281 C 188.945312 102.390625 190.746094 102.652344 192.335938 102.363281 C 193.960938 102.070312 195.476562 101.300781 197.007812 100.523438 C 197.898438 100.101562 198.78125 99.671875 199.664062 99.246094 C 200.332031 98.929688 200.996094 98.609375 201.664062 98.296875 C 203.222656 97.574219 204.78125 96.859375 206.371094 96.1875 C 206.460938 96.148438 206.570312 96.195312 206.613281 96.285156 C 206.648438 96.375 206.613281 96.472656 206.53125 96.519531 C 205.03125 97.363281 203.503906 98.15625 201.976562 98.945312 C 200.9375 99.480469 199.886719 100.003906 198.839844 100.523438 C 198.347656 100.765625 197.859375 101.007812 197.367188 101.253906 C 195.828125 101.980469 194.230469 102.804688 192.4375 103.042969 C 191.546875 103.160156 190.628906 103.117188 189.761719 102.871094 C 188.898438 102.613281 188.074219 102.148438 187.507812 101.449219 Z M 175.476562 114.210938 C 176.183594 112.582031 176.96875 110.980469 177.871094 109.449219 C 178.777344 107.921875 179.777344 106.449219 180.898438 105.074219 C 180.960938 104.992188 181.074219 104.984375 181.15625 105.042969 C 181.226562 105.109375 181.242188 105.210938 181.191406 105.289062 C 180.238281 106.765625 179.328125 108.265625 178.5 109.804688 C 177.667969 111.34375 176.894531 112.910156 176.226562 114.53125 C 175.65625 115.820312 175.171875 117.144531 174.722656 118.484375 C 174.613281 118.800781 174.496094 119.121094 174.394531 119.441406 C 173.976562 120.730469 173.625 122.042969 173.292969 123.359375 C 173.273438 123.445312 173.25 123.53125 173.230469 123.617188 C 173.15625 123.917969 173.074219 124.214844 173.003906 124.519531 C 172.980469 124.601562 172.898438 124.652344 172.816406 124.632812 C 172.738281 124.613281 172.683594 124.539062 172.695312 124.464844 C 172.734375 124.15625 172.777344 123.847656 172.824219 123.542969 C 173.039062 122.097656 173.347656 120.660156 173.730469 119.246094 C 174.195312 117.53125 174.800781 115.855469 175.476562 114.210938 Z M 184.546875 89.273438 C 184.570312 89.203125 184.644531 89.160156 184.71875 89.171875 C 185.160156 89.234375 185.605469 89.269531 186.050781 89.289062 C 186.703125 89.316406 187.347656 89.300781 187.988281 89.21875 C 189.066406 89.085938 190.128906 88.832031 191.125 88.410156 C 192.136719 88.023438 193.085938 87.480469 193.953125 86.835938 C 194.824219 86.1875 195.605469 85.417969 196.285156 84.550781 C 196.347656 84.46875 196.460938 84.453125 196.546875 84.519531 C 196.617188 84.574219 196.632812 84.671875 196.59375 84.753906 C 196.050781 85.761719 195.285156 86.652344 194.402344 87.398438 C 193.515625 88.144531 192.496094 88.726562 191.429688 89.167969 C 190.34375 89.570312 189.203125 89.847656 188.046875 89.90625 C 187.835938 89.914062 187.625 89.914062 187.414062 89.914062 C 186.46875 89.902344 185.53125 89.769531 184.644531 89.472656 C 184.5625 89.445312 184.515625 89.355469 184.546875 89.273438 Z M 175.523438 68.179688 C 176.042969 67.683594 176.847656 67.550781 177.550781 67.710938 C 177.902344 67.796875 178.246094 67.941406 178.527344 68.175781 C 178.8125 68.402344 179.054688 68.6875 179.171875 69.023438 C 179.207031 69.121094 179.15625 69.234375 179.058594 69.269531 C 178.996094 69.289062 178.933594 69.277344 178.882812 69.242188 L 178.871094 69.238281 C 178.625 69.054688 178.390625 68.898438 178.136719 68.777344 C 177.886719 68.664062 177.632812 68.5625 177.359375 68.503906 C 177.097656 68.433594 176.824219 68.402344 176.542969 68.386719 C 176.261719 68.375 175.976562 68.402344 175.667969 68.453125 L 175.660156 68.453125 C 175.574219 68.46875 175.492188 68.410156 175.476562 68.320312 C 175.464844 68.265625 175.488281 68.214844 175.523438 68.179688 Z M 181.929688 82.042969 C 181.351562 82.042969 180.746094 81.863281 180.324219 81.472656 C 180.261719 81.410156 180.257812 81.308594 180.316406 81.246094 C 180.363281 81.199219 180.429688 81.1875 180.488281 81.207031 L 180.492188 81.207031 C 181.414062 81.5625 182.398438 81.351562 183.21875 80.910156 C 183.324219 80.851562 183.425781 80.777344 183.53125 80.710938 C 183.832031 80.519531 184.125 80.300781 184.417969 80.0625 C 184.457031 80.03125 184.496094 79.996094 184.535156 79.960938 C 184.882812 79.671875 185.226562 79.351562 185.601562 79.054688 C 185.683594 78.992188 185.796875 79.003906 185.863281 79.089844 C 185.914062 79.152344 185.917969 79.234375 185.878906 79.300781 C 185.605469 79.753906 185.285156 80.183594 184.914062 80.585938 C 184.546875 80.992188 184.105469 81.351562 183.605469 81.625 C 183.089844 81.890625 182.515625 82.054688 181.929688 82.042969 Z M 178.976562 65.097656 C 179.15625 65.371094 179.292969 65.671875 179.335938 65.996094 C 179.347656 66.105469 179.277344 66.199219 179.171875 66.214844 C 179.105469 66.222656 179.046875 66.199219 179.003906 66.15625 L 179 66.148438 C 178.796875 65.941406 178.617188 65.738281 178.417969 65.554688 C 178.222656 65.378906 178.027344 65.195312 177.816406 65.042969 C 177.613281 64.878906 177.386719 64.738281 177.160156 64.59375 C 176.929688 64.449219 176.683594 64.328125 176.421875 64.191406 L 176.417969 64.1875 C 176.335938 64.144531 176.308594 64.046875 176.347656 63.964844 C 176.375 63.921875 176.417969 63.890625 176.46875 63.882812 C 176.789062 63.828125 177.117188 63.871094 177.425781 63.960938 C 177.746094 64.042969 178.039062 64.203125 178.300781 64.390625 C 178.566406 64.589844 178.800781 64.820312 178.976562 65.097656 Z M 189.203125 65.058594 C 188.808594 64.707031 188.375 64.398438 187.902344 64.167969 C 187.433594 63.933594 186.925781 63.785156 186.398438 63.6875 C 185.867188 63.597656 185.324219 63.585938 184.765625 63.628906 C 184.675781 63.636719 184.597656 63.570312 184.59375 63.484375 C 184.585938 63.417969 184.625 63.355469 184.683594 63.328125 C 185.234375 63.082031 185.847656 62.984375 186.464844 63.003906 C 187.082031 63.019531 187.691406 63.175781 188.257812 63.4375 C 188.816406 63.710938 189.324219 64.089844 189.722656 64.5625 C 190.125 65.027344 190.4375 65.566406 190.589844 66.15625 C 190.613281 66.253906 190.554688 66.355469 190.453125 66.382812 C 190.375 66.40625 190.292969 66.371094 190.25 66.304688 C 189.941406 65.839844 189.597656 65.417969 189.203125 65.058594 Z M 178.300781 73.710938 C 177.972656 74.429688 177.8125 75.226562 177.972656 75.957031 C 178.140625 76.65625 178.714844 77.335938 179.488281 77.460938 L 179.496094 77.464844 C 179.582031 77.476562 179.636719 77.554688 179.625 77.640625 C 179.613281 77.714844 179.550781 77.765625 179.480469 77.773438 C 178.496094 77.839844 177.621094 77.074219 177.316406 76.148438 C 177 75.210938 177.199219 74.214844 177.558594 73.382812 C 177.933594 72.542969 178.453125 71.832031 178.929688 71.140625 C 179.398438 70.449219 179.820312 69.738281 180.027344 68.945312 C 180.050781 68.847656 180.148438 68.78125 180.25 68.808594 C 180.335938 68.828125 180.394531 68.910156 180.390625 68.992188 C 180.367188 69.910156 179.96875 70.761719 179.542969 71.519531 C 179.113281 72.28125 178.625 72.976562 178.300781 73.710938 Z M 239.644531 366.882812 C 239.460938 367.777344 238.925781 367.875 238.445312 367.097656 C 237.964844 366.320312 237.71875 364.964844 237.902344 364.066406 C 238.082031 363.171875 238.621094 363.074219 239.101562 363.851562 C 239.582031 364.628906 239.828125 365.984375 239.644531 366.882812 Z M 239.742188 361.558594 L 229.054688 361.558594 C 229.054688 361.558594 228.394531 365.542969 225.773438 367.570312 C 223.332031 369.464844 223.25 375.007812 223.25 375.007812 L 242.070312 375.007812 Z M 116.292969 137.480469 C 110.269531 135.746094 107.359375 128.234375 111.023438 128.234375 C 114.085938 128.234375 115.203125 130.066406 115.203125 130.066406 C 115.203125 130.066406 116.347656 128.234375 118.671875 128.234375 C 122.339844 128.234375 121.777344 135.746094 116.292969 137.480469 Z M 136 153.726562 C 135.769531 152.605469 138.378906 152.65625 143.40625 152.65625 C 148.4375 152.65625 153.324219 157.625 153.324219 157.625 C 153.324219 157.625 165.007812 156.070312 175.820312 154.347656 C 179.765625 153.71875 183.589844 153.070312 186.691406 152.464844 C 186.800781 151.992188 186.859375 151.507812 186.859375 151.003906 L 155.472656 151.003906 L 150.027344 116.878906 L 149.410156 113.003906 C 148.960938 110.175781 146.515625 108.09375 143.652344 108.09375 L 91.808594 108.09375 C 88.222656 108.09375 85.488281 111.296875 86.050781 114.839844 L 92.09375 152.710938 C 92.542969 155.542969 94.988281 157.625 97.851562 157.625 L 123.847656 157.625 L 143.265625 157.515625 C 143.265625 157.515625 136.234375 154.847656 136 153.726562 Z M 156.636719 368.574219 C 155.433594 368.574219 154.539062 367.601562 154.640625 366.402344 C 154.738281 365.199219 155.789062 364.226562 156.992188 364.226562 C 158.195312 364.226562 159.09375 365.199219 158.992188 366.402344 C 158.890625 367.601562 157.839844 368.574219 156.636719 368.574219 Z M 153.417969 361.558594 L 153.445312 361.558594 C 153.445312 361.558594 151.925781 365.78125 143.945312 366.839844 C 136.464844 367.832031 131.375 375.007812 131.375 375.007812 L 161.167969 375.007812 L 164.132812 361.558594 L 164.109375 361.558594 C 164.109375 361.558594 180.089844 331.777344 182.898438 307.4375 C 185.707031 283.097656 184.378906 272.320312 191.101562 258.65625 C 193.027344 254.734375 195.761719 250.261719 198.703125 245.457031 L 178.710938 168.988281 Z M 197.378906 61.488281 C 197.359375 61.703125 197.339844 61.925781 197.324219 62.144531 C 197.214844 61.671875 196.976562 61.203125 196.707031 60.800781 C 196.90625 61.050781 197.128906 61.28125 197.378906 61.488281 Z M 168.511719 80.023438 C 168.855469 79.859375 169.050781 79.5 169.226562 79.15625 C 169.8125 78.007812 170.402344 76.851562 170.992188 75.703125 C 170.804688 78.136719 171.980469 80.632812 173.976562 82.042969 C 174.445312 82.375 175.011719 82.644531 175.570312 82.714844 C 173.125 75.523438 175.277344 61.96875 175.507812 56.820312 C 175.558594 55.71875 175.761719 54.625 176.097656 53.578125 C 176.726562 53.03125 177.5 52.644531 178.285156 52.5 C 177.332031 54.875 178.242188 57.644531 179.789062 59.683594 C 180.253906 60.300781 180.804688 60.894531 181.519531 61.195312 C 182.238281 61.492188 183.152344 61.421875 183.675781 60.851562 C 183.691406 60.839844 183.695312 60.820312 183.710938 60.804688 C 183.953125 60.511719 184.042969 60.097656 183.976562 59.722656 C 184.660156 60.515625 185.535156 61.140625 186.511719 61.519531 C 186.996094 61.703125 187.539062 61.828125 188.03125 61.660156 C 188.617188 61.453125 188.996094 60.855469 189.113281 60.242188 C 189.226562 59.632812 189.128906 59.003906 189.03125 58.386719 C 190.152344 60.421875 191.789062 62.171875 193.742188 63.425781 C 194.355469 63.820312 195.035156 64.171875 195.761719 64.171875 C 196.359375 64.167969 196.972656 63.855469 197.246094 63.347656 C 197.191406 64.371094 197.171875 65.398438 197.183594 66.421875 C 197.75 65.597656 198.367188 64.777344 199.253906 64.320312 C 200.226562 63.820312 201.605469 63.9375 202.179688 64.867188 C 202.625 65.582031 202.457031 66.503906 202.222656 67.308594 C 201.816406 68.710938 201.210938 70.09375 200.183594 71.128906 C 199.492188 71.824219 198.578125 72.328125 197.621094 72.496094 C 198.019531 75.488281 198.6875 78.441406 199.628906 81.308594 C 200.535156 84.078125 201.746094 86.84375 203.828125 88.886719 C 203.980469 89.03125 204.148438 89.175781 204.324219 89.300781 C 204.722656 89.585938 205.171875 89.773438 205.625 89.65625 C 206.476562 89.449219 206.761719 88.363281 206.675781 87.488281 C 206.589844 86.617188 206.304688 85.703125 206.632812 84.894531 C 207.769531 85.457031 208.199219 87.128906 209.445312 87.34375 C 210.445312 87.519531 211.347656 86.550781 211.488281 85.546875 C 211.628906 84.546875 211.234375 83.558594 210.839844 82.625 C 212.285156 83.105469 213.769531 83.597656 215.289062 83.5625 C 216.8125 83.527344 218.410156 82.859375 219.152344 81.527344 C 220.132812 79.765625 219.335938 77.582031 218.527344 75.734375 C 220.035156 76.589844 222.070312 76.398438 223.386719 75.277344 C 224.710938 74.15625 225.230469 72.179688 224.632812 70.554688 C 224.5 70.195312 224.3125 69.820312 224.386719 69.445312 C 224.488281 68.964844 224.964844 68.679688 225.339844 68.367188 C 226.761719 67.175781 226.996094 64.953125 226.214844 63.265625 C 225.441406 61.585938 223.851562 60.394531 222.15625 59.644531 C 220.464844 58.886719 218.636719 58.5 216.859375 57.96875 C 215.082031 57.4375 213.304688 56.734375 211.945312 55.46875 C 211.398438 54.964844 210.929688 54.375 210.457031 53.789062 C 209.546875 51.140625 207.472656 48.875 204.835938 47.890625 C 205.65625 47.902344 207.570312 48.320312 208.269531 47.890625 C 208.964844 47.457031 209.410156 46.519531 209.035156 45.792969 C 208.734375 45.210938 208.050781 44.957031 207.414062 44.789062 C 205.65625 44.328125 203.84375 44.023438 202.039062 44.105469 C 202.484375 43.933594 202.859375 43.539062 202.996094 43.070312 C 203.210938 42.347656 202.941406 41.546875 202.453125 40.964844 C 201.390625 39.703125 199.53125 39.464844 197.882812 39.617188 C 196.371094 39.753906 194.96875 40.15625 193.574219 40.765625 C 194.171875 40.148438 193.976562 39.054688 193.359375 38.457031 C 192.742188 37.859375 191.84375 37.65625 190.988281 37.582031 C 189.355469 37.441406 187.660156 37.695312 186.234375 38.503906 C 184.804688 39.308594 183.789062 40.445312 183.488281 42.054688 C 183.148438 41.402344 182.800781 40.742188 182.28125 40.21875 C 181.761719 39.699219 181.042969 39.328125 180.3125 39.40625 C 179.636719 39.476562 179.058594 39.90625 178.589844 40.398438 C 178.039062 40.96875 177.582031 41.671875 177.492188 42.464844 C 177.347656 43.78125 178.371094 45.160156 179.214844 46.183594 C 176.65625 46.351562 174.054688 46.53125 171.667969 47.464844 C 171.371094 47.582031 171.074219 47.710938 170.84375 47.933594 C 170.613281 48.152344 170.464844 48.480469 170.535156 48.789062 C 170.609375 49.109375 170.886719 49.335938 171.160156 49.519531 C 172.203125 50.207031 173.453125 50.445312 174.703125 50.414062 C 172.738281 52.085938 171.15625 54.300781 169.992188 56.535156 C 168.148438 60.074219 167.167969 63.996094 166.347656 67.902344 C 165.582031 71.539062 164.980469 75.5 166.621094 78.839844 C 166.984375 79.585938 167.765625 80.378906 168.511719 80.023438"/></g></svg>